<?xml version="1.0" standalone="no"?>
<!DOCTYPE svg PUBLIC "-//W3C//DTD SVG 1.1//EN" "http://www.w3.org/Graphics/SVG/1.1/DTD/svg11.dtd" >
<svg xmlns="http://www.w3.org/2000/svg">
<metadata></metadata>
<defs>
<font id="PetitaLightRegular" horiz-adv-x="681" >
<font-face units-per-em="2048" ascent="1638" descent="-410" />
<missing-glyph horiz-adv-x="569" />
<glyph horiz-adv-x="0" />
<glyph unicode="&#xd;" horiz-adv-x="385" d="M143 0h99v920h-99v-920z" />
<glyph d="M61 1325q35 -104 113 -168.5t167 -64.5t165 63.5t115 169.5h-84q-67 -137 -196.5 -137t-195.5 137h-84z" />
<glyph d="M250 1122h180v181h-180v-181z" />
<glyph d="M164 1212q0 -74 51 -125t126 -51t126 51t51 124t-52 125t-126 53q-74 0 -125 -51.5t-51 -125.5zM219 1212q0 51 35 86t85 35t87 -35t37 -87t-36 -86t-87 -33q-51 0 -86 34.5t-35 85.5z" />
<glyph unicode="&#xa;" d="M135 1067h70l309 319h-166zM408 1067h69q78 86 134 142l95 95q39 39 80 82h-165z" />
<glyph d="M199 -186q0 -72 55 -117t139 -45l84 10v78l-37 -2q-51 -3 -93 25.5t-42 83.5t39 102t70 71h-68q-68 -27 -110 -81q-37 -53 -37 -125z" />
<glyph d="M59 1384l222 -335h118l224 335h-78l-205 -221l-203 221h-78z" />
<glyph horiz-adv-x="276" d="M-440 -55h80l1077 1470h-82z" />
<glyph horiz-adv-x="980" d="M23 840h170v-840h98v840h192v80h-192v131q0 284 227 282q205 0 221 -176h99q-12 141 -99.5 199.5t-228 58.5t-229 -95t-88.5 -269v-131h-170v-80zM739 0h99v920h-99v-920z" />
<glyph horiz-adv-x="980" d="M27 840h170v-840h98v840h190v80h-190v167q0 98 51 165t154 67q50 0 143 -31v96l-43 17q-37 14 -90 14q-137 0 -225 -90t-88 -235v-170h-170v-80zM739 0h99v1397h-99v-1397z" />
<glyph horiz-adv-x="960" d="M-86 328l248 202v-530h799v90h-691v528l342 279v107l-342 -279v672h-108v-760l-248 -203v-106z" />
<glyph horiz-adv-x="385" d="M-55 424l198 166v-590h99v672l204 170v98l-204 -170v627h-99v-709l-198 -166v-98z" />
<glyph horiz-adv-x="1300" d="M18 31l11 -31h1222v90h-1054l1048 1268l-10 39h-1169v-90h999zM369 1831l221 -336h119l223 336h-78l-205 -221l-203 221h-77z" />
<glyph horiz-adv-x="811" d="M20 31l11 -31h757v90h-604l604 799l-8 31h-727v-91h576zM129 1384l221 -335h119l223 335h-78l-204 -221l-203 221h-78z" />
<glyph unicode=" "  horiz-adv-x="569" />
<glyph unicode="&#x09;" horiz-adv-x="569" />
<glyph unicode="&#xa0;" horiz-adv-x="569" />
<glyph unicode="!" horiz-adv-x="362" d="M115 0h133v199h-133v-199zM115 1397l35 -1004h63l35 1004h-133z" />
<glyph unicode="&#x22;" horiz-adv-x="569" d="M78 1169l24 -247h86l25 245v234h-135v-232zM358 1169l25 -247h86l25 245v234h-136v-232z" />
<glyph unicode="#" horiz-adv-x="1351" d="M158 430h170l-88 -430h96l88 430h385l-88 -430h96l88 430h289v94h-268l80 391h188v95h-168l86 420h-96l-86 -420h-385l86 420h-96l-86 -420h-291v-95h270l-80 -391h-190v-94zM444 524l80 391h385l-80 -391h-385z" />
<glyph unicode="$" horiz-adv-x="1067" d="M82 145q68 -63 188 -116q82 -40 213 -49v-220h99v220q154 14 273.5 112.5t119.5 250t-96.5 235.5t-304 147t-293.5 125q-82 55 -82 162q0 106 95 177t226 71t232 -48q112 -55 161 -96v113q-134 107 -333 125l2 164h-99l-2 -164q-152 -12 -262 -105q-127 -102 -127 -251 t93 -223.5t291 -132.5t296 -124t98 -178.5t-95 -189t-236 -76.5q-152 0 -337 104q-61 35 -120 80v-113z" />
<glyph unicode="%" horiz-adv-x="1429" d="M39 1088.5q0 -134.5 96 -232.5t232.5 -98t233.5 97t97 232t-96 231.5t-231 96.5t-236 -96q-96 -96 -96 -230.5zM92 -23h105l1126 1430h-104zM127 1087.5q0 98.5 71 169t171 70.5t170.5 -71t70.5 -170t-70.5 -170t-169.5 -70.5t-171 72t-72 170zM731 301q0 -135 97 -230 t233 -96q135 0 233.5 96.5t98.5 230.5t-97.5 230t-232.5 96.5t-233.5 -96t-98.5 -231.5zM819 301q0 98 72 169t172 71t172 -72q70 -74 70 -170t-72 -166t-171 -70t-171 70t-72 168z" />
<glyph unicode="&#x26;" horiz-adv-x="1259" d="M53.5 320q-0.5 -138 92 -238t263.5 -100t283.5 65t204.5 176l213 -223h137l-289 303q115 154 197 393h-115q-62 -181 -155 -317l-316 332q119 57 199 141q94 94 94 230t-92 212t-221 76t-226 -87t-98 -212q0 -157 156 -311l20 -21q-145 -55 -246 -168t-101.5 -251z M170 329.5q0 121.5 86 201t217 135.5l352 -369q-86 -106 -179 -160.5t-212 -54.5t-191.5 63t-72.5 184.5zM330 1073q0 92 70.5 144.5t152.5 52.5t145.5 -54.5t63.5 -143.5t-71 -162t-193 -124l-21 21q-147 147 -147 266z" />
<glyph unicode="'" horiz-adv-x="454" d="M160 1169l24 -247h86l25 245v234h-135v-232z" />
<glyph unicode="(" d="M164 470.5q0 -321.5 127 -555.5t270 -366h105q-160 137 -279 378t-119 543t121 547t277 380h-105q-139 -129 -268 -367t-129 -559.5z" />
<glyph unicode=")" d="M12 -451h105q141 127 271 364.5t130 559.5t-129 558.5t-272 365.5h-105q160 -135 281 -380t121 -544t-121 -544t-281 -380z" />
<glyph unicode="*" horiz-adv-x="960" d="M94 838l51 -93q66 52 114 83q130 82 196 124q-14 -259 -27 -368h102q-15 122 -18.5 207.5t-7.5 160.5q91 -59 152 -97q86 -53 157 -110l51 93q-90 36 -177 81.5t-155 79.5q68 35 111 57.5t77 39.5q60 31 144 65l-51 92q-65 -52 -113.5 -82t-90.5 -57t-105 -67 q14 273 26 368h-102q14 -111 18.5 -202t8.5 -166q-63 41 -105.5 67.5t-75.5 47.5q-58 36 -129 91l-51 -92q90 -36 177 -81.5t155 -80.5q-68 -35 -111 -57t-77 -40q-54 -28 -144 -64z" />
<glyph unicode="+" horiz-adv-x="1351" d="M139 678h492v-492h90v492h491v90h-491v485h-90v-485h-492v-90z" />
<glyph unicode="," horiz-adv-x="362" d="M94 -168v-72q29 23 64 51.5t62.5 86t27.5 137.5v164h-133v-199h43q0 -74 -10.5 -100.5t-28 -42t-25.5 -25.5z" />
<glyph unicode="-" horiz-adv-x="641" d="M78 463h485v96h-485v-96z" />
<glyph unicode="." horiz-adv-x="362" d="M115 0h131v201h-131v-201z" />
<glyph unicode="/" horiz-adv-x="575" d="M6 -18h96l451 1433h-96z" />
<glyph unicode="0" horiz-adv-x="1024" d="M66 692q0 -311 119.5 -511t325.5 -199.5t329 198.5q121 201 121 512v13q0 311 -120 511t-326 199.5t-329 -198.5q-121 -201 -120 -512v-13zM172 690v17q0 260 95 435t247 175t246 -176t94 -434v-17q0 -260 -95 -435t-247 -175t-246 174t-94 436z" />
<glyph unicode="1" horiz-adv-x="686" d="M39 911l72 -73l309 309v-1147h106v1397h-106v-107z" />
<glyph unicode="2" horiz-adv-x="1024" d="M92 1163q70 66 145 110t173 44q135 0 224 -89t89 -215t-39 -213q-76 -169 -159.5 -291t-160.5 -207q-173 -191 -255 -273v-29h854v96h-650q77 87 143 170.5t103 136t71 99.5q63 87 134 231q66 147 65 277q0 172 -117.5 288.5t-293.5 116.5q-117 0 -202 -45t-124 -82v-125 z" />
<glyph unicode="3" horiz-adv-x="1024" d="M139 51q37 -18 127 -44t191 -25q186 0 305 112q117 113 117 299q0 121 -72 213t-203 135q139 47 199 133q59 88 59 185q0 156 -114 258q-115 98 -291 98q-121 0 -200 -35t-105 -55v-100q31 22 104.5 57t198 35t214 -77t89.5 -190.5t-97.5 -189.5t-234.5 -76h-12v-98h20 q155 0 247.5 -85t92.5 -221t-90 -218t-238 -82q-145 0 -254 44q-30 13 -53 23v-96z" />
<glyph unicode="4" horiz-adv-x="1024" d="M29 539h639v-539h104v539h193v84h-193v792h-41l-702 -842v-34zM174 623l494 596v-596h-494z" />
<glyph unicode="5" horiz-adv-x="1024" d="M84 74q43 -27 134 -60t210 -32q193 0 317.5 125.5t124.5 324.5t-125 318q-132 124 -329 116l-119 -6v440h494v97h-592v-652q97 29 182 29q178 0 282.5 -92t104.5 -249t-97 -255t-249 -98q-126 0 -282 80q-34 18 -56 35v-121z" />
<glyph unicode="6" horiz-adv-x="1024" d="M125 477q0 -240 122 -367.5t296 -127.5t288.5 108t114.5 278t-109.5 279t-287.5 109q-168 0 -305 -113q88 393 524 698l-61 74q-227 -158 -404.5 -400.5t-177.5 -537.5zM225 463v31q0 16 2 30q31 35 113 84t207 49t210 -85t85 -210t-86 -204q-88 -78 -215 -78t-221.5 101 t-94.5 282z" />
<glyph unicode="7" horiz-adv-x="1024" d="M59 1300h762l-577 -1280l88 -38l639 1415h-912v-97z" />
<glyph unicode="8" horiz-adv-x="1024" d="M115 379q0 -166 115.5 -282t283.5 -115.5t282.5 115t114.5 286.5q0 117 -59 206t-147 136q92 68 135 142.5t43 176.5q0 152 -108 262t-261.5 109.5t-262 -109t-108.5 -268.5q0 -187 183 -313q-94 -49 -152.5 -138t-58.5 -208zM219 378q0 128 84 212t209 84t211 -86 q84 -88 84 -211t-84 -210t-209 -87t-210 85t-85 213zM248 1043.5q0 115.5 73.5 193.5t189.5 78t194 -78q73 -78 73 -194t-77.5 -193.5t-185 -77.5t-189.5 78q-78 78 -78 193.5z" />
<glyph unicode="9" horiz-adv-x="1024" d="M65.5 1029q0.5 -165 112.5 -275q115 -109 279 -109q96 0 178 37t133 72q-41 -188 -130 -309q-161 -219 -400 -388l57 -75q322 236 459 466t137 470.5t-122 368.5t-301 128t-292 -110q-111 -111 -110.5 -276zM170 1030q0 119 84 203t220.5 84t222 -96t85.5 -299v-25 q0 -10 -2 -20q-39 -41 -122.5 -87t-199.5 -46.5t-204 83.5q-84 84 -84 203z" />
<glyph unicode=":" horiz-adv-x="362" d="M115 0h131v201h-131v-201zM115 721h131v201h-131v-201z" />
<glyph unicode=";" horiz-adv-x="362" d="M94 -168v-72q29 23 64 51.5t62.5 86t27.5 137.5v164h-133v-199h43q0 -74 -10.5 -100.5t-28 -42t-25.5 -25.5zM115 721h131v201h-131v-201z" />
<glyph unicode="&#x3c;" horiz-adv-x="1351" d="M139 676l1073 -451v101l-950 393l950 393v100l-1073 -450v-86z" />
<glyph unicode="=" horiz-adv-x="1351" d="M139 426h1073v90h-1073v-90zM139 922h1073v90h-1073v-90z" />
<glyph unicode="&#x3e;" horiz-adv-x="1351" d="M139 225l1073 451v86l-1073 450v-100l948 -393l-948 -393v-101z" />
<glyph unicode="?" horiz-adv-x="575" d="M55 1358l35 -88q4 2 28 15q83 44 115 44q68 0 112 -56t44 -141t-41 -170t-100 -181.5t-80 -151.5q-16 -55 -16 -107q0 -97 79 -184l35 31q-14 27 -21 46t-12 29q-4 20 -4 58q0 84 89 211.5t133 212.5q43 85 43 201t-64 204q-66 86 -194 86q-49 0 -71.5 -9t-47.5 -20.5 t-42.5 -19.5t-19.5 -10zM174 0h133v199h-133v-199z" />
<glyph unicode="@" horiz-adv-x="1638" d="M182.5 548q-0.5 -267 184 -470t479.5 -203q209 0 379 99.5t225 203.5h-78q-59 -90 -206.5 -165t-331.5 -74q-227 0 -406.5 169t-179.5 431t174 438q176 176 406.5 176t382 -147.5t151.5 -336.5t-104.5 -323.5t-198.5 -134.5q-8 0 -18.5 15t-10.5 36.5t6 52.5l127 594h-96 l-25 -125q-29 78 -99.5 117t-129.5 39q-180 0 -291 -149q-109 -152 -108.5 -316t81.5 -249t176 -85t165 46t102 96q12 -84 38 -115t52 -31q141 0 268 154t127 373.5t-165.5 386t-431 166.5t-454.5 -201t-189.5 -468zM512 477q0 137 85 266t208 129q92 0 146.5 -67.5 t54.5 -166.5t-86 -261t-218 -162q-68 0 -129 62.5t-61 199.5z" />
<glyph unicode="A" horiz-adv-x="1366" d="M8 0h113l221 483h682l221 -483h111l-643 1407h-60zM383 573l299 658l301 -658h-600z" />
<glyph unicode="B" horiz-adv-x="1087" d="M164 0h407q219 0 344 99.5t125 279.5q0 145 -90 233t-233 113q203 107 203 307q0 174 -120 269.5t-333 95.5h-303v-1397zM272 90v569h244q410 0 410 -290q0 -133 -101 -207q-102 -72 -274 -72h-279zM272 750v557h158q373 0 373 -285q0 -133 -96 -203q-95 -69 -266 -69h-5 h-164z" />
<glyph unicode="C" horiz-adv-x="1386" d="M100 692q0 -311 214 -511q213 -199 545 -199h3q170 0 374 81q58 23 105 52v112q-252 -145 -514 -145t-436 172t-174 440t177 444.5t444 176.5q251 0 487 -137v120q-102 53 -231 85t-238 32q-324 0 -541 -205q-215 -207 -215 -518z" />
<glyph unicode="D" horiz-adv-x="1515" d="M162 0h512q348 0 542.5 194.5t194.5 511t-203 503.5t-549 188h-497v-1397zM270 90v1217h379q293 0 469 -169.5t176 -442.5t-178 -439t-471 -166h-375z" />
<glyph unicode="E" horiz-adv-x="1003" d="M164 0h778v90h-670v567l637 2v89h-637v559h656v90h-764v-1397z" />
<glyph unicode="F" horiz-adv-x="897" d="M160 0h108v686h551v90h-551v531h615v90h-723v-1397z" />
<glyph unicode="G" horiz-adv-x="1472" d="M102 699q0 -308 215 -513q214 -204 542 -204h3q263 0 494 118v535h-402v-90h295v-377q-53 -31 -153 -58.5t-219 -27.5q-295 0 -476.5 169t-181.5 441t178 449q180 174 437 174t497 -141v122q-57 33 -193 76t-296 43q-317 0 -528.5 -204t-211.5 -512z" />
<glyph unicode="H" horiz-adv-x="1472" d="M162 0h108v662h930v-662h109v1397h-109v-645h-930v645h-108v-1397z" />
<glyph unicode="I" horiz-adv-x="425" d="M160 0h106v1397h-106v-1397z" />
<glyph unicode="J" horiz-adv-x="425" d="M-92 -301l10 -102l70 -5h15q109 0 189 92q87 99 87 302v1411h-109v-1389q0 -154 -49 -235q-45 -82 -148 -82z" />
<glyph unicode="K" horiz-adv-x="1087" d="M156 0h108v700l731 -700h138l-730 700l666 697h-135l-670 -697v697h-108v-1397z" />
<glyph unicode="L" horiz-adv-x="960" d="M162 0h799v90h-691v1307h-108v-1397z" />
<glyph unicode="M" horiz-adv-x="1599" d="M158 0h108v1243l533 -657l530 657v-1243h109v1397h-109l-530 -649l-533 649h-108v-1397z" />
<glyph unicode="N" horiz-adv-x="1579" d="M160 0h108v1221l1061 -1221h92v1397h-108v-1225q-273 328 -469 545q-319 352 -592 680h-92v-1397z" />
<glyph unicode="O" horiz-adv-x="1685" d="M104 698q0 -305 212 -511q211 -206 525 -206l1 1q314 0 527.5 206.5t213.5 510.5t-213 511q-215 205 -528 205t-525.5 -206t-212.5 -511zM221 697q0 255 181 436.5t442 181.5q260 0 441 -181.5t181 -435.5t-181 -435t-442 -181t-441.5 180t-180.5 435z" />
<glyph unicode="P" horiz-adv-x="1044" d="M160 0h108v653h277q213 0 333.5 96.5t120.5 276.5t-116 277q-117 94 -328 94h-395v-1397zM268 743v564h281q156 0 246 -75t90 -209t-91 -207t-257 -73h-269z" />
<glyph unicode="Q" horiz-adv-x="1685" d="M104 697q0 -306 211 -511q176 -172 451 -200q166 -147 359.5 -213t275.5 -66l-8 111l-29 3q-159 16 -227 45q-124 51 -219 118q272 29 452 202q213 207 213 513t-213 511q-205 205 -523 205t-530.5 -206t-212.5 -512zM221 697q0 255 181 436.5t442 181.5 q260 0 441 -181.5t181 -435.5t-181 -435t-442 -181t-441.5 180t-180.5 435z" />
<glyph unicode="R" horiz-adv-x="1173" d="M162 0h108v670h213q143 0 217 -84q61 -68 146 -203l246 -383h127l-263 401q-29 43 -57.5 86t-76 108.5t-103.5 100.5q102 33 183 117t81 219q0 176 -123 273q-123 92 -346 92h-352v-1397zM270 760v547h242q164 0 259 -71t95 -203t-95 -203q-94 -70 -264 -70h-5h-232z" />
<glyph unicode="S" horiz-adv-x="960" d="M94 1048.5q0 -149.5 79 -229.5t249 -138t254 -127t84 -191t-86 -201.5t-223.5 -79.5t-337.5 149v-127q55 -38 149 -80t217 -42q162 0 278.5 110t116.5 266t-76.5 242t-263 154.5t-255 127t-68.5 169t84 187.5t198.5 77t175 -29.5t94.5 -46t56 -31.5l-2 119 q-23 19 -116 53.5t-209 34.5q-160 0 -281 -108q-117 -109 -117 -258.5z" />
<glyph unicode="T" horiz-adv-x="1173" d="M8 1307h524v-1307h109v1307h524v90h-1157v-90z" />
<glyph unicode="U" horiz-adv-x="1429" d="M131 596q0 -270 164 -442t422 -172t422 176q161 178 161 448v791h-108v-783q0 -244 -128 -388t-346 -144t-349 141q-129 141 -129 381v793h-109v-801z" />
<glyph unicode="V" horiz-adv-x="1216" d="M6 1397l588 -1411h31l589 1411h-112l-492 -1182l-495 1182h-109z" />
<glyph unicode="W" horiz-adv-x="2111" d="M-2 1397l561 -1411h29l469 1179l469 -1179h26l559 1411h-108l-463 -1159l-467 1159h-33l-469 -1157l-462 1157h-111z" />
<glyph unicode="X" horiz-adv-x="1409" d="M0 0h139l566 639l565 -639h141l-637 715l600 682h-139l-530 -602l-533 602h-139l600 -682z" />
<glyph unicode="Y" horiz-adv-x="1193" d="M0 1397l543 -647v-750h108v750l543 647h-131l-465 -553l-467 553h-131z" />
<glyph unicode="Z" horiz-adv-x="1300" d="M18 31l11 -31h1222v90h-1054l1048 1268l-10 39h-1169v-90h999z" />
<glyph unicode="[" horiz-adv-x="618" d="M141 -451h463v97h-364v1654h364v97h-463v-1848z" />
<glyph unicode="\" horiz-adv-x="575" d="M27 1415l448 -1433h94l-448 1433h-94z" />
<glyph unicode="]" horiz-adv-x="618" d="M14 -354v-97h463v1848h-463v-97h365v-1654h-365z" />
<glyph unicode="^" horiz-adv-x="1351" d="M227 881l64 -58l385 461l387 -461l63 58l-444 528h-12z" />
<glyph unicode="_" horiz-adv-x="1024" d="M-12 -520v-103h1050v103h-1050z" />
<glyph unicode="`" d="M158 1386l313 -319h66l-213 319h-166z" />
<glyph unicode="a" horiz-adv-x="1044" d="M76 445.5q0 -210.5 126 -337t318 -126.5q150 0 295 69v-55h98v924h-96v-64q-139 82 -276 82q-205 0 -335 -141t-130 -351.5zM180 443q0 170 108 284q108 115 273 115q86 0 158 -32t98 -50v-606q-128 -83 -281 -83h-4q-155 1 -253 100q-99 100 -99 272z" />
<glyph unicode="b" horiz-adv-x="1044" d="M127 1397l2 -1346q63 -29 146.5 -49t166.5 -20q244 0 383.5 139t139.5 354t-113 340q-115 123 -303 123t-324 -154v613h-98zM225 123v559q41 48 125 111t210 63t214 -106q88 -111 88 -276t-117 -281q-119 -115 -288 -115q-82 0 -144.5 15t-87.5 30z" />
<glyph unicode="c" horiz-adv-x="854" d="M86 449q0 -209 123 -338t338 -129q94 0 208 36q24 7 38 11v102q-123 -53 -242 -53q-170 0 -265 103q-96 104 -96 276q0 170 96 277t253 108q82 0 124 -15.5t67.5 -23.5t45.5 -19v109q-131 45 -239 45q-207 0 -329 -140t-122 -349z" />
<glyph unicode="d" horiz-adv-x="1044" d="M84 464q0 -208 135 -345t332 -137q80 0 141 21.5t131 68.5v-72h99v1397h-99v-533q-39 25 -114.5 49.5t-143.5 24.5q-215 0 -348 -133t-133 -341zM188 462q0 165 102.5 272t268.5 108q90 0 160 -32t102 -56v-592q-105 -84 -259.5 -84t-264 109.5t-109.5 274.5z" />
<glyph unicode="e" horiz-adv-x="980" d="M82 464q0 -206 132 -344t324 -138t357 122v111q-31 -28 -131 -88q-90 -49 -201 -49q-162 0 -270 108q-109 104 -109 267v22q0 10 2 19h727q0 193 -113.5 318.5t-296.5 125.5t-302 -134t-119 -340zM197 573q29 100 75 160q88 109 223.5 109t205 -70t92.5 -199h-596z" />
<glyph unicode="f" horiz-adv-x="491" d="M23 840h170v-840h98v840h178v80h-178v120q0 279 217 279q57 0 98 -12q69 -21 74 -23v92q-10 8 -61 23.5t-105 15.5q-141 0 -231 -96t-90 -248v-151h-170v-80z" />
<glyph unicode="g" horiz-adv-x="1044" d="M76 445.5q0 -210.5 126 -337t318 -126.5q150 0 295 69v-239q0 -61 -88 -116q-78 -50 -148.5 -50t-117 30.5t-69.5 63.5t-44 74l-102 -2q43 -127 134 -204t200 -77q104 0 216 87q119 92 119 194h-2v1108h-96v-64q-139 82 -276 82q-205 0 -335 -141t-130 -351.5zM180 443 q0 170 108 284q109 115 273 115q86 0 158 -32t98 -50v-606q-128 -83 -281 -83h-4q-155 1 -253 100q-99 100 -99 272z" />
<glyph unicode="h" horiz-adv-x="1003" d="M127 0h98v649q51 78 119 135q70 58 188 58h1q117 0 182 -84q63 -86 63 -234v-524h99v555q0 180 -95.5 281.5t-255.5 101.5q-90 0 -160.5 -40t-140.5 -146v645h-98v-1397z" />
<glyph unicode="i" horiz-adv-x="385" d="M143 0h99v920h-99v-920zM143 1229h99v168h-99v-168z" />
<glyph unicode="j" horiz-adv-x="385" d="M-57 -387l26 -84q96 0 182.5 83.5t86.5 321.5v986h-99v-1016q0 -164 -49 -228q-51 -63 -139 -63h-8zM139 1229h99v168h-99v-168z" />
<glyph unicode="k" horiz-adv-x="874" d="M121 0h98v1397h-98v-1397zM233 483l582 -483h133l-581 483l503 437h-129z" />
<glyph unicode="l" horiz-adv-x="385" d="M143 0h99v1397h-99v-1397z" />
<glyph unicode="m" horiz-adv-x="1579" d="M123 0h98v647q58 90 119 142q62 53 170 53h2q108 0 167 -84q60 -84 60 -234v-524h99v627q45 74 112 145q68 70 171.5 70t167.5 -83t65 -235v-524h98v555q0 170 -81 276t-216 107h-25q-119 0 -197.5 -73t-117.5 -146q-57 129 -128 174t-148 45h-25q-88 0 -159 -41 t-136 -145v168h-96v-920z" />
<glyph unicode="n" horiz-adv-x="1003" d="M127 0h98v649q51 78 119 135q70 58 188 58h1q117 0 182 -84q63 -86 63 -234v-524h99v555q0 180 -95.5 281.5t-255.5 101.5q-92 0 -163 -40t-140 -146v168h-96v-920z" />
<glyph unicode="o" horiz-adv-x="1110" d="M86 459q0 -203 133 -340t335 -137t337 137q133 139 133 341t-133 340t-335 138t-337 -137q-133 -139 -133 -342zM190 459q0 160 106.5 271.5t258.5 111.5t258 -113q107 -108 107 -268t-107 -273q-109 -111 -258 -111l-1 1q-150 0 -256.5 110.5t-107.5 270.5z" />
<glyph unicode="p" horiz-adv-x="1044" d="M129 -471h98v522q79 -36 138 -53q72 -16 149 -16q184 0 315.5 143t131.5 345t-132 335q-133 133 -335 133q-152 0 -265 -70v52h-100v-1391zM227 145v631q115 66 242 66q164 0 273.5 -109.5t109.5 -274.5t-101 -272.5t-270 -107.5q-126 0 -254 67z" />
<glyph unicode="q" horiz-adv-x="1044" d="M76 445.5q0 -210.5 126 -337t318 -126.5q150 0 295 69v-522h98v1391h-96v-64q-139 82 -276 82q-205 0 -335 -141t-130 -351.5zM180 443q0 170 108 284q109 115 273 115q86 0 158 -32t98 -50v-606q-128 -83 -281 -83h-4q-155 1 -253 100q-99 100 -99 272z" />
<glyph unicode="r" d="M129 0h98v580q41 74 126 168t163 94h1q78 0 190 -105l57 90q-14 18 -79 64.5t-119 46.5t-96 -8t-84 -43t-82 -74t-77 -100v207h-98v-920z" />
<glyph unicode="s" horiz-adv-x="724" d="M84 66q37 -23 106 -56q73 -31 184 -31q2 1 4 1q114 0 199 76t85 184.5t-78 170.5t-180.5 98t-160.5 76q-59 40 -59 106q0 65 54 111t159 46t236 -94v104q-58 50 -171 72q-38 8 -83 8q-111 0 -200 -71t-89 -173t62.5 -161t194 -106.5t176 -90.5t44.5 -106.5t-57 -108.5 q-59 -43 -138 -43t-157 25.5t-131 60.5v-98z" />
<glyph unicode="t" horiz-adv-x="618" d="M-51 840h248v-654q0 -96 57 -151q59 -53 158 -53q72 0 117.5 17.5t70.5 27.5v96q-97 -45 -173.5 -45t-104 34t-27.5 142v586h258v80h-258v305h-31l-67 -45v-260h-248v-80z" />
<glyph unicode="u" horiz-adv-x="1003" d="M127 352q0 -180 95 -275t268.5 -95t287.5 178v-160h99v920h-99v-644q-36 -68 -114 -134q-78 -65 -190 -65q-1 1 -2 1q-114 0 -181 78q-66 78 -66 217v547h-98v-568z" />
<glyph unicode="v" horiz-adv-x="874" d="M0 920l418 -938h61l395 938h-96l-332 -775l-346 775h-100z" />
<glyph unicode="w" horiz-adv-x="1449" d="M0 920l393 -938h45l285 747l283 -747h47l395 938h-96l-320 -750l-289 750h-45l-288 -750l-314 750h-96z" />
<glyph unicode="x" horiz-adv-x="980" d="M12 0h127l361 403l360 -403h125l-420 471l422 449h-127l-360 -381l-361 381h-127l420 -449z" />
<glyph unicode="y" horiz-adv-x="854" d="M10 920l389 -744l-321 -647h100l686 1391h-100l-315 -644l-332 644h-107z" />
<glyph unicode="z" horiz-adv-x="811" d="M20 31l11 -31h757v90h-604l604 799l-8 31h-727v-91h576z" />
<glyph unicode="{" d="M102 412q191 -31 191 -258v-297q0 -127 59.5 -217.5t208.5 -90.5h27v111h-33q-68 0 -108 39t-39 145v258q0 291 -197 371q195 78 197 371v258q0 104 41 145q43 39 106 39h33v111h-27q-152 0 -210 -89t-58 -218v-297q0 -115 -46 -178.5t-145 -79.5v-123z" />
<glyph unicode="|" horiz-adv-x="454" d="M176 -512h98v2048h-98v-2048z" />
<glyph unicode="}" d="M94 -340v-111h27q152 0 211 91q57 92 57 217v297q0 226 193 258v123q-98 16 -146 77q-47 66 -47 181v297q0 127 -59.5 217t-208.5 90h-27v-111h33q68 0 108 -39t39 -145v-258q0 -290 199 -371q-197 -80 -199 -371v-258q0 -104 -41 -145q-43 -39 -106 -39h-33z" />
<glyph unicode="~" horiz-adv-x="1351" d="M137 594q63 53 138 95t152 42t244 -81t264 -81t181 56q41 27 65.5 43t32.5 22l3 113q-83 -58 -149.5 -97.5t-142 -39.5t-243.5 81t-266 80.5t-180 -55.5q-41 -27 -66 -43t-33 -22v-113z" />
<glyph unicode="&#xa1;" horiz-adv-x="362" d="M115 -453h133l-35 1004h-63zM115 745h133v199h-133v-199z" />
<glyph unicode="&#xa2;" horiz-adv-x="854" d="M86 449q0 -209 123 -338q37 -37 92 -72l-149 -426h90l139 393q57 -25 150.5 -24.5t146.5 14.5t76.5 21.5t38.5 11.5v102q-123 -53 -225.5 -53t-153.5 22l256 723q2 -2 18 -7q66 -20 88 -32v109q-53 18 -76 22l140 392h-90l-134 -375q-35 6 -79 6q-207 0 -329 -140 t-122 -349zM190.5 454.5q-0.5 172.5 95 279.5t253.5 108h24q11 0 21 -2l-248 -703q-31 25 -49 43q-96 102 -96.5 274.5z" />
<glyph unicode="&#xa3;" horiz-adv-x="1130" d="M193 -10q96 17 140 22q97 13 183 13t212 -21.5t175 -21.5q108 0 201 45v108q-106 -55 -199 -55q-34 0 -127 16q-181 32 -241 27l-211 -14l137 520h246v96h-217l73 207q59 168 162 276q115 120 252 109l53 -4l55 -13l-49 97l-92 18q-186 0 -311 -155q-115 -142 -172 -314 l-74 -221h-196v-96h172q-4 0 -81 -290t-91 -302v-47z" />
<glyph unicode="&#xa4;" horiz-adv-x="1386" d="M16 457h142q53 -158 178 -275q213 -201 547 -200q170 0 374 81q58 23 105 52v112q-252 -145 -514.5 -145t-435.5 172q-88 88 -133 203h1015v82h-1040q-16 78 -16 177t32 191h1024v82h-989q39 82 111 150q176 176 442 176q250 0 488 -137v120q-102 53 -231.5 85t-237.5 32 q-324 0 -541 -205q-104 -102 -156 -221h-164v-82h134q-29 -102 -29 -203.5t14 -164.5h-119v-82z" />
<glyph unicode="&#xa5;" horiz-adv-x="1138" d="M4 1466l436 -725h-377v-96h435l8 -14v-142h-443v-96h443v-393h131v393h434v96h-434v142l8 14h426v96h-369l435 725h-144l-418 -725l-423 725h-148z" />
<glyph unicode="&#xa6;" horiz-adv-x="454" d="M176 358v-870h98v870h-98zM176 666h98v870h-98v-870z" />
<glyph unicode="&#xa7;" horiz-adv-x="811" d="M51 566q0 -169 195 -339l188 -170q156 -144 156 -262q0 -88 -63.5 -133t-126 -45t-113.5 35q-47 35 -62 102h-104q20 -123 98 -174t187.5 -51t197.5 72q84 72 84 200.5t-104 245.5q78 72 126 159t48 173t-49 170t-144 168l-190 170q-154 142 -154 262q0 88 64 133 q59 45 122.5 45t114.5 -35q49 -37 64 -102h104q-20 121 -99 173t-187.5 52t-194.5 -72t-86 -200.5t104 -245.5q-78 -70 -127 -158t-49 -173zM154 572q0 73 20 115q36 76 115 147l256 -234q27 -27 81 -107q29 -44 29 -116.5t-20 -114.5q-35 -75 -115 -147l-256 233 q-25 25 -67.5 88t-42.5 136z" />
<glyph unicode="&#xa8;" d="M131 1143h139v139h-139v-139zM412 1143h139v139h-139v-139z" />
<glyph unicode="&#xa9;" horiz-adv-x="1638" d="M55 728q0 -316 223.5 -539.5t539.5 -223.5t539.5 223.5t223.5 539.5t-223 539.5t-539.5 223.5t-540 -223.5t-223.5 -539.5zM151.5 728q0.5 275 196 471t470.5 196t471 -196t196 -471t-196 -471t-471 -196t-471 196t-195.5 471zM438 720.5q0 -186.5 113 -306.5 q111 -123 278 -123q115 0 206 72.5t124 189.5l-90 33q-27 -90 -92 -150q-66 -55 -154 -55q-137 0 -208 105t-70.5 248.5t75.5 235t214 91.5q78 0 135 -46t86 -120l96 25q-45 100 -126 162t-187 63q-180 0 -290 -119t-110 -305.5z" />
<glyph unicode="&#xaa;" horiz-adv-x="575" d="M47 976q0 -64 48 -104.5t107 -40.5q116 0 199 74q0 -71 43 -71q52 0 123 57v49q-10 -6 -20 -13q-47 -33 -70 -36l-12 24v349q0 74 -49 112.5t-128.5 38.5t-136 -23.5t-71.5 -37.5v-60q90 72 188 72q135 0 133 -117v-69q-102 -2 -204 -33q-61 -20 -105.5 -63.5 t-44.5 -107.5zM110.5 979q0.5 45 41.5 80t81 47t65 16q49 8 73 8h30v-176q-18 -13 -71 -49q-43 -25 -99 -24q-55 0 -88 26.5t-32.5 71.5z" />
<glyph unicode="&#xab;" horiz-adv-x="1024" d="M41 473l387 -461h125l-387 461l383 461h-125zM475 473l387 -461h125l-387 461l383 461h-125z" />
<glyph unicode="&#xac;" horiz-adv-x="1376" d="M168 0h104v973l404 -494l-53 -51v-563l-283 291l-57 -56l594 -618l59 57l-285 295l594 2l76 74h-621l-4 565l406 498v-973h102v1128h-98l-418 -512l-420 512h-100v-1128zM463 1004l37 -72q45 36 93 66t79 51q-2 -39 -2 -89t-11 -116h76q-4 31 -5 51t-3 41.5t-3 47.5 t-3 65q119 -77 172 -117l39 72q-77 26 -187 90q33 16 56.5 28.5t43 21.5l39 18t48.5 20l-39 69q-34 -27 -66 -48q-59 -39 -106 -66q9 167 14 204h-76q11 -85 11 -126.5t2 -77.5q-103 60 -172 114l-37 -69q58 -22 103.5 -47t80.5 -41q-35 -18 -57.5 -30.5t-41.5 -21.5 q-35 -19 -85 -38z" />
<glyph unicode="&#xad;" horiz-adv-x="641" d="M78 463h485v96h-485v-96z" />
<glyph unicode="&#xae;" horiz-adv-x="1638" d="M55 728q0 -316 223.5 -539.5t539.5 -223.5t539.5 223.5t223.5 539.5t-223 539.5t-539.5 223.5t-540 -223.5t-223.5 -539.5zM151.5 728q0.5 275 196 471t470.5 196t471 -196t196 -471t-196 -471t-471 -196t-471 196t-195.5 471zM512 317h98v353h78q123 0 190.5 -82 t145.5 -271h123l-57 129q-42 92 -70 134q-39 63 -133 104q111 12 168 74q59 59 59 150t-65 153q-66 59 -228 59h-309v-803zM610 750v290h172q100 0 158.5 -28.5t58.5 -106.5t-49 -117t-192 -38h-148z" />
<glyph unicode="&#xaf;" d="M68 1171h544v105h-544v-105z" />
<glyph unicode="&#xb0;" horiz-adv-x="819" d="M125 1129q0 -118 84 -201.5t202 -83.5t201.5 83.5t83.5 201.5t-84 202t-201.5 84t-201.5 -84t-84 -202zM207 1129q0 85 59.5 144.5t144.5 59.5t144 -59.5t59 -144.5t-59 -144t-144 -59t-144.5 59t-59.5 144z" />
<glyph unicode="&#xb1;" horiz-adv-x="1351" d="M139 0h1073v90h-1073v-90zM139 674h492v-492h90v492h491v90h-491v491h-90v-491h-492v-90z" />
<glyph unicode="&#xb2;" horiz-adv-x="641" d="M61 1284q67 47 104.5 63.5t111 16.5t131 -45t57.5 -111.5t-25 -111.5q-40 -77 -82.5 -128t-75 -84.5t-65.5 -62t-68.5 -60.5t-76.5 -67v-14h546v49h-415q48 45 90.5 89.5t67 69.5t45.5 52q55 68 86 121q97 185 -35 295q-76 59 -192 59t-204 -65v-66z" />
<glyph unicode="&#xb3;" horiz-adv-x="641" d="M82 707q100 -37 210 -37t186.5 58.5t76.5 156.5q0 63 -48 111t-128 69q164 47 164 166q0 80 -72 132t-169 52t-145 -16t-69 -31v-51q23 9 68 28t124.5 19t138 -40t58.5 -99t-63.5 -98.5t-149.5 -39.5h-8v-51h14q98 0 157.5 -44t59.5 -114.5t-59 -113.5t-138 -43t-117 9 t-57.5 15.5t-33.5 10.5v-49z" />
<glyph unicode="&#xb4;" d="M313 1067h66l313 319h-166z" />
<glyph unicode="&#xb5;" horiz-adv-x="1138" d="M207 -362h98v466q39 -55 110 -89t156 -33q166 0 273 178v-160h98v920h-98v-644q-33 -66 -112 -132.5t-188.5 -66t-173.5 77.5t-65 218v547h-98v-1282z" />
<glyph unicode="&#xb6;" horiz-adv-x="1331" d="M100 1043q0 -194 123 -306q119 -113 328 -112v-1033h131v1735h264v-1735h131v1735h195v139h-697q-215 0 -346 -114q-129 -115 -129 -309z" />
<glyph unicode="&#xb7;" horiz-adv-x="575" d="M115 608h131v201h-131v-201z" />
<glyph unicode="&#xb8;" d="M217 -348l92 -10q88 0 144 43q55 38 55 100.5t-37 102.5t-90 40l25 88h-62l-43 -143q127 0 127 -82q0 -80 -133 -78l-68 4z" />
<glyph unicode="&#xb9;" horiz-adv-x="641" d="M285 1407l2 -727h67l-2 727h-67z" />
<glyph unicode="&#xba;" horiz-adv-x="724" d="M53 1123q0 -126 88 -207.5t220 -81.5t221.5 82.5t89.5 208.5t-88 208q-92 82 -222.5 82t-219.5 -83t-89 -209zM120.5 1123.5q0.5 94.5 71.5 164.5t170 70q100 0 170 -69t70 -165t-70 -166q-72 -68 -172 -67.5t-170 69.5t-69.5 163.5z" />
<glyph unicode="&#xbb;" horiz-adv-x="1024" d="M37 12h125l387 461l-383 461h-125l383 -461zM471 12h125l387 461l-383 461h-125l383 -461z" />
<glyph unicode="&#xbc;" horiz-adv-x="1705" d="M127 -55h80l1077 1470h-82zM297 1407l2 -727h68l-2 727h-68zM819 281h410v-281h65v281h123v43h-123v411h-26l-449 -436v-18zM911 324l318 309v-309h-318z" />
<glyph unicode="&#xbd;" horiz-adv-x="1705" d="M127 -55h80l1077 1470h-82zM297 1407l2 -727h68l-2 727h-68zM971 604q23 16 45 32q71 49 157.5 48.5t143.5 -45.5t57 -111.5t-24 -111.5q-41 -76 -83 -127t-75 -85t-65.5 -62.5t-68.5 -60.5t-77 -67v-14h547v49h-416q29 27 56 53l53 54q25 27 49 52t47 56 q125 144 125 272q0 78 -76 138.5t-191.5 60.5t-203.5 -65v-66z" />
<glyph unicode="&#xbe;" horiz-adv-x="1705" d="M119 707q100 -37 210 -37t186.5 58.5t76.5 156.5q0 63 -48 111t-128 69q164 47 164 166q0 80 -72 132t-169 52t-145 -16t-69 -31v-51q23 9 68 28t124.5 19t138 -40t58.5 -99t-63.5 -98.5t-149.5 -39.5h-8v-51h14q98 0 157.5 -44t59.5 -114.5t-59 -113.5t-138.5 -43 t-117 9t-57 15.5t-33.5 10.5v-49zM231 -55h80l1078 1470h-82zM936 281h410v-281h65v281h123v43h-123v411h-27l-448 -436v-18zM1028 324l318 309v-309h-318z" />
<glyph unicode="&#xbf;" horiz-adv-x="575" d="M55 -161q0 -116 63.5 -203t194.5 -87q49 0 71.5 9.5t47.5 20.5q57 25 62 30l-35 88q-4 -2 -29 -15q-78 -44 -115 -44q-68 0 -111.5 56t-43.5 141t40 169t100 181.5t81 152.5q16 55 16 108q0 98 -80 183l-34 -31q14 -27 21 -46.5t10 -29.5q5 -17 5 -55q0 -86 -88.5 -214 t-132 -213t-43.5 -201zM242 768h133v199h-133v-199z" />
<glyph unicode="&#xc0;" horiz-adv-x="1366" d="M8 0h113l221 483h682l221 -483h111l-643 1407h-60zM383 573l299 658l301 -658h-600zM500 1833l313 -320h66l-213 320h-166z" />
<glyph unicode="&#xc1;" horiz-adv-x="1366" d="M8 0h113l221 483h682l221 -483h111l-643 1407h-60zM383 573l299 658l301 -658h-600zM655 1513h66l313 320h-166z" />
<glyph unicode="&#xc2;" horiz-adv-x="1366" d="M8 0h113l221 483h682l221 -483h111l-643 1407h-60zM383 573l299 658l301 -658h-600zM401 1495h78l203 221l205 -221h78l-224 336h-118z" />
<glyph unicode="&#xc3;" horiz-adv-x="1366" d="M8 0h113l221 483h682l221 -483h111l-643 1407h-60zM348 1569h66q6 57 32.5 77.5t64.5 20.5t155 -50t193.5 -50t116.5 58t40 136h-64q-17 -98 -86 -98q-51 0 -168 50t-191.5 50t-117.5 -57q-41 -59 -41 -137zM383 573l299 658l301 -658h-600z" />
<glyph unicode="&#xc4;" horiz-adv-x="1366" d="M8 0h113l221 483h682l221 -483h111l-643 1407h-60zM383 573l299 658l301 -658h-600zM475 1589h139v140h-139v-140zM756 1589h139v140h-139v-140z" />
<glyph unicode="&#xc5;" horiz-adv-x="1366" d="M8 0h113l221 483h682l221 -483h111l-643 1407h-60zM383 573l299 658l301 -658h-600zM508 1659q0 -74 51 -125t126 -51t126 51t51 124t-52 125t-126 52t-125 -51t-51 -125zM563 1659q0 51 35 86t85 35t87 -35t37 -87t-36 -86t-87 -34t-86 35t-35 86z" />
<glyph unicode="&#xc6;" horiz-adv-x="1771" d="M-29 0h117l412 659h409v-659h779v90h-670v567l637 2v89h-637v559h655v90h-829zM559 750l350 569v-569h-350z" />
<glyph unicode="&#xc7;" horiz-adv-x="1386" d="M100 692q0 -311 215 -510q174 -162 420 -192l-35 -117q127 0 127 -82q0 -80 -133 -78l-67 4l-11 -65l93 -10q88 0 143 43q55 38 55 100.5t-37 102.5t-90 40l17 56q16 -2 32 -2h33q170 0 374 81q58 23 105 52v112q-252 -145 -514 -145t-436 172t-174 440t177 444.5 t444 176.5q251 0 487 -137v120q-102 53 -231 85t-238 32q-324 0 -541 -205q-215 -207 -215 -518z" />
<glyph unicode="&#xc8;" horiz-adv-x="1003" d="M164 0h778v90h-670v567l637 2v89h-637v559h656v90h-764v-1397zM344 1833l313 -320h66l-213 320h-166z" />
<glyph unicode="&#xc9;" horiz-adv-x="1003" d="M164 0h778v90h-670v567l637 2v89h-637v559h656v90h-764v-1397zM500 1513h65l314 320h-166z" />
<glyph unicode="&#xca;" horiz-adv-x="1003" d="M164 0h778v90h-670v567l637 2v89h-637v559h656v90h-764v-1397zM246 1495h78l202 221l205 -221h78l-223 336h-119z" />
<glyph unicode="&#xcb;" horiz-adv-x="1003" d="M164 0h778v90h-670v567l637 2v89h-637v559h656v90h-764v-1397zM319 1589h140v140h-140v-140zM600 1589h139v140h-139v-140z" />
<glyph unicode="&#xcc;" horiz-adv-x="425" d="M33 1833l313 -320h66l-213 320h-166zM160 0h106v1397h-106v-1397z" />
<glyph unicode="&#xcd;" horiz-adv-x="425" d="M160 0h106v1397h-106v-1397zM188 1513h66l313 320h-166z" />
<glyph unicode="&#xce;" horiz-adv-x="425" d="M-66 1495h78l203 221l205 -221h78l-224 336h-118zM160 0h106v1397h-106v-1397z" />
<glyph unicode="&#xcf;" horiz-adv-x="425" d="M8 1589h139v140h-139v-140zM160 0h106v1397h-106v-1397zM289 1589h139v140h-139v-140z" />
<glyph unicode="&#xd0;" horiz-adv-x="1515" d="M-47 655h209v-655h512q348 0 542.5 194.5t194.5 511t-201 501.5t-551 190l-497 6v-658h-209v-90zM270 90v565h453v90h-453v562h379q293 0 469 -169.5t176 -442.5t-178 -439t-471 -166h-375z" />
<glyph unicode="&#xd1;" horiz-adv-x="1579" d="M160 0h108v1221l1061 -1221h92v1397h-108v-1225q-273 328 -469 545q-319 352 -592 680h-92v-1397zM463 1569h65q6 57 33 77.5t64.5 20.5t154.5 -50t194 -50t116.5 58t39.5 136h-63q-17 -98 -86 -98q-51 0 -168 50t-191.5 50t-117.5 -57q-41 -59 -41 -137z" />
<glyph unicode="&#xd2;" horiz-adv-x="1685" d="M104 698q0 -305 212 -511t526.5 -205.5t527.5 207t213 510.5t-213 511q-215 205 -528 205t-525.5 -206t-212.5 -511zM221 697q0 255 181 436.5t442 181.5q260 0 441 -181.5t181 -435.5t-181 -435t-442 -181t-441.5 180t-180.5 435zM659 1833l314 -320h65l-213 320h-166z " />
<glyph unicode="&#xd3;" horiz-adv-x="1685" d="M104 698q0 -305 212 -511t526.5 -205.5t527.5 207t213 510.5t-213 511q-215 205 -528 205t-525.5 -206t-212.5 -511zM221 697q0 255 181 436.5t442 181.5q260 0 441 -181.5t181 -435.5t-181 -435t-442 -181t-441.5 180t-180.5 435zM815 1513h66l313 320h-166z" />
<glyph unicode="&#xd4;" horiz-adv-x="1685" d="M104 698q0 -305 212 -511t526.5 -205.5t527.5 207t213 510.5t-213 511q-215 205 -528 205t-525.5 -206t-212.5 -511zM221 697q0 255 181 436.5t442 181.5q260 0 441 -181.5t181 -435.5t-181 -435t-442 -181t-441.5 180t-180.5 435zM561 1495h78l203 221l205 -221h77 l-223 336h-119z" />
<glyph unicode="&#xd5;" horiz-adv-x="1685" d="M104 698q0 -305 212 -511t526.5 -205.5t527.5 207t213 510.5t-213 511q-215 205 -528 205t-525.5 -206t-212.5 -511zM221 697q0 255 181 436.5t442 181.5q260 0 441 -181.5t181 -435.5t-181 -435t-442 -181t-441.5 180t-180.5 435zM508 1569h65q6 57 33 77.5t64.5 20.5 t154.5 -50t194 -50t117 58t40 136h-64q-17 -98 -86 -98q-51 0 -168 50t-191.5 50t-117.5 -57q-41 -59 -41 -137z" />
<glyph unicode="&#xd6;" horiz-adv-x="1685" d="M104 698q0 -305 212 -511t526.5 -205.5t527.5 207t213 510.5t-213 511q-215 205 -528 205t-525.5 -206t-212.5 -511zM221 697q0 255 181 436.5t442 181.5q260 0 441 -181.5t181 -435.5t-181 -435t-442 -181t-441.5 180t-180.5 435zM635 1589h139v140h-139v-140zM915 1589 h140v140h-140v-140z" />
<glyph unicode="&#xd7;" horiz-adv-x="1351" d="M264 373l66 -66l346 346l346 -346l65 66l-346 346l346 346l-65 65l-346 -346l-346 346l-66 -65l346 -346z" />
<glyph unicode="&#xd8;" horiz-adv-x="1685" d="M104 700q0 -303 211 -514l9 -8l-131 -145l75 -53l127 141q182 -139 449 -139q313 0 526 206.5t213 509.5t-211 508l135 150l-75 53l-129 -143q-186 150 -459 149q-315 0 -527.5 -206t-212.5 -509zM221 697q0 255 181 436.5t425 181.5t402 -131l-830 -920 q-178 178 -178 433zM469 203l827 919q170 -176 170 -427t-181 -432t-441 -181q-217 0 -375 121z" />
<glyph unicode="&#xd9;" horiz-adv-x="1429" d="M131 596q0 -270 164 -442t422 -172t422 176q161 178 161 448v791h-108v-783q0 -244 -128 -388t-346 -144t-349 141q-129 141 -129 381v793h-109v-801zM530 1833l314 -320h65l-213 320h-166z" />
<glyph unicode="&#xda;" horiz-adv-x="1429" d="M131 596q0 -270 164 -442t422 -172t422 176q161 178 161 448v791h-108v-783q0 -244 -128 -388t-346 -144t-349 141q-129 141 -129 381v793h-109v-801zM686 1513h66l313 320h-166z" />
<glyph unicode="&#xdb;" horiz-adv-x="1429" d="M131 596q0 -270 164 -442t422 -172t422 176q161 178 161 448v791h-108v-783q0 -244 -128 -388t-346 -144t-349 141q-129 141 -129 381v793h-109v-801zM432 1495h78l203 221l205 -221h77l-223 336h-119z" />
<glyph unicode="&#xdc;" horiz-adv-x="1429" d="M131 596q0 -270 164 -442t422 -172t422 176q161 178 161 448v791h-108v-783q0 -244 -128 -388t-346 -144t-349 141q-129 141 -129 381v793h-109v-801zM506 1589h139v140h-139v-140zM786 1589h140v140h-140v-140z" />
<glyph unicode="&#xdd;" horiz-adv-x="1193" d="M0 1397l543 -647v-750h108v750l543 647h-131l-465 -553l-467 553h-131zM567 1513h66l313 320h-166z" />
<glyph unicode="&#xde;" horiz-adv-x="1044" d="M160 0h108v328h277q213 0 333.5 96t120.5 276t-120 277q-123 94 -338 94h-273v326h-108v-1397zM268 420v561h281q156 0 246 -75t90 -210t-92 -204q-90 -72 -256 -72h-269z" />
<glyph unicode="&#xdf;" horiz-adv-x="1024" d="M127 0h98v918q0 258 76 335q74 80 192 80t199.5 -62t81.5 -185t-55 -194t-144 -71h-16v-92q156 -18 216 -108t60.5 -221t-68.5 -226.5t-196 -95.5q-39 0 -65 7t-38.5 10t-21.5 7v-102q60 -18 117 -18q174 0 276.5 127t102.5 290t-73 253.5t-177 123.5q102 43 146 135 q41 94 41 166q0 150 -106.5 244t-271.5 94t-269.5 -104.5t-104.5 -323.5v-987z" />
<glyph unicode="&#xe0;" horiz-adv-x="989" d="M76 445.5q0 -210.5 126 -337t318 -126.5q150 0 295 69v-55h98v924h-96v-64q-139 82 -276 82q-205 0 -335 -141t-130 -351.5zM180.5 441q-0.5 171 108 286t272.5 115q86 0 158 -32t98 -50v-606q-130 -84 -285 -83t-253 100t-98.5 270zM252 1386l313 -319h66l-213 319h-166 z" />
<glyph unicode="&#xe1;" horiz-adv-x="970" d="M76 445.5q0 -210.5 126 -337t318 -126.5q150 0 295 69v-55h98v924h-96v-64q-139 82 -276 82q-205 0 -335 -141t-130 -351.5zM180.5 441q-0.5 171 108 286t272.5 115q86 0 158 -32t98 -50v-606q-130 -84 -285 -83t-253 100t-98.5 270zM408 1067h65l313 319h-165z" />
<glyph unicode="&#xe2;" horiz-adv-x="1009" d="M76 445.5q0 -210.5 126 -337t318 -126.5q150 0 295 69v-55h98v924h-96v-64q-139 82 -276 82q-205 0 -335 -141t-130 -351.5zM180.5 441q-0.5 171 108 286t272.5 115q86 0 158 -32t98 -50v-606q-130 -84 -285 -83t-253 100t-98.5 270zM236 1049h77l203 221l205 -221h78 l-224 335h-118z" />
<glyph unicode="&#xe3;" horiz-adv-x="987" d="M76 445.5q0 -210.5 126 -337t318 -126.5q150 0 295 69v-55h98v924h-96v-64q-139 82 -276 82q-205 0 -335 -141t-130 -351.5zM180.5 441q-0.5 171 108 286t272.5 115q86 0 158 -32t98 -50v-606q-130 -84 -285 -83t-253 100t-98.5 270zM182 1122h66q6 57 32.5 78t64.5 21 t155 -50.5t193.5 -50.5t116.5 58.5t40 136.5h-64q-17 -98 -86 -98q-51 0 -168 50t-191.5 50t-117.5 -57q-41 -59 -41 -138z" />
<glyph unicode="&#xe4;" horiz-adv-x="1003" d="M76 445.5q0 -210.5 126 -337t318 -126.5q150 0 295 69v-55h98v924h-96v-64q-139 82 -276 82q-205 0 -335 -141t-130 -351.5zM180.5 441q-0.5 171 108 286t272.5 115q86 0 158 -32t98 -50v-606q-130 -84 -285 -83t-253 100t-98.5 270zM309 1143h140v139h-140v-139z M590 1143h139v139h-139v-139z" />
<glyph unicode="&#xe5;" horiz-adv-x="874" d="M76 445.5q0 -210.5 126 -337t318 -126.5q150 0 295 69v-55h98v924h-96v-64q-139 82 -276 82q-205 0 -335 -141t-130 -351.5zM180.5 441q-0.5 171 108 286t272.5 115q86 0 158 -32t98 -50v-606q-130 -84 -285 -83t-253 100t-98.5 270zM362 1212q0 -74 51.5 -125t126.5 -51 t126 51t51 124t-52 125t-126 53q-74 0 -125.5 -51.5t-51.5 -125.5zM418 1212q0 51 34.5 86t85 35t87.5 -35t37 -87t-36 -86t-87 -33q-51 0 -86 34.5t-35 85.5z" />
<glyph unicode="&#xe6;" horiz-adv-x="1536" d="M35 445.5q0 -210.5 126 -337t318 -126.5q150 0 295 69v-55h98v127q74 -81 133.5 -111.5t147.5 -29.5q167 0 320 122v111q-27 -27 -115 -88q-78 -49 -170 -49q-139 0 -230 108q-68 76 -86 187v121h619q0 195 -100.5 319.5t-257.5 124.5q-115 0 -181 -54q-25 -19 -48 -43 t-32 -32v111h-96v-64q-139 82 -276 82q-205 0 -335 -141t-130 -351.5zM139.5 441q-0.5 171 108 286t272.5 115q86 0 158 -32t98 -50v-606q-130 -84 -285 -83t-253 100t-98.5 270zM877 573q20 94 63 160q74 109 186 109q214 0 244 -269h-493z" />
<glyph unicode="&#xe7;" horiz-adv-x="854" d="M86 449q0 -209 123 -338q88 -94 227 -119l-35 -119q127 0 127 -82q0 -80 -133 -78l-67 4l-11 -65l93 -10q88 0 143 43q55 38 55 100.5t-37 102.5t-90 40l17 56q10 -2 23 -2h58.5t98.5 14t76.5 21.5t38.5 11.5v102q-123 -53 -242 -53q-170 0 -265 103t-95.5 274.5 t95 278.5t253.5 108q82 0 124 -15.5t67.5 -23.5t45.5 -19v109q-131 45 -239 45q-207 0 -329 -140t-122 -349z" />
<glyph unicode="&#xe8;" horiz-adv-x="980" d="M82 464q0 -206 132 -344t324 -138t357 122v111q-31 -28 -131 -88q-90 -49 -201 -49q-162 0 -270 108q-109 104 -109 267v22q0 10 2 19h727q0 193 -113.5 318.5t-296.5 125.5t-302 -134t-119 -340zM197 573q29 100 75 160q88 109 223.5 109t205 -70t92.5 -199h-596z M307 1386l314 -319h65l-213 319h-166z" />
<glyph unicode="&#xe9;" horiz-adv-x="980" d="M82 464q0 -206 132 -344t324 -138t357 122v111q-31 -28 -131 -88q-90 -49 -201 -49q-162 0 -270 108q-109 104 -109 267v22q0 10 2 19h727q0 193 -113.5 318.5t-296.5 125.5t-302 -134t-119 -340zM197 573q29 100 75 160q88 109 223.5 109t205 -70t92.5 -199h-596z M463 1067h65l314 319h-166z" />
<glyph unicode="&#xea;" horiz-adv-x="980" d="M82 464q0 -206 132 -344t324 -138t357 122v111q-31 -28 -131 -88q-90 -49 -201 -49q-162 0 -270 108q-109 104 -109 267v22q0 10 2 19h727q0 193 -113.5 318.5t-296.5 125.5t-302 -134t-119 -340zM197 573q29 100 75 160q88 109 223.5 109t205 -70t92.5 -199h-596z M209 1049h78l202 221l205 -221h78l-223 335h-119z" />
<glyph unicode="&#xeb;" horiz-adv-x="980" d="M82 464q0 -206 132 -344t324 -138t357 122v111q-31 -28 -131 -88q-90 -49 -201 -49q-162 0 -270 108q-109 104 -109 267v22q0 10 2 19h727q0 193 -113.5 318.5t-296.5 125.5t-302 -134t-119 -340zM197 573q29 100 75 160q88 109 223.5 109t205 -70t92.5 -199h-596z M283 1143h139v139h-139v-139zM563 1143h139v139h-139v-139z" />
<glyph unicode="&#xec;" horiz-adv-x="385" d="M8 1386l314 -319h65l-213 319h-166zM143 0h99v920h-99v-920z" />
<glyph unicode="&#xed;" horiz-adv-x="385" d="M82 1067h65l314 319h-166zM143 0h99v920h-99v-920z" />
<glyph unicode="&#xee;" horiz-adv-x="385" d="M-90 1049h78l202 221l205 -221h78l-223 335h-119zM143 0h99v920h-99v-920z" />
<glyph unicode="&#xef;" horiz-adv-x="385" d="M-16 1143h139v139h-139v-139zM143 0h99v920h-99v-920zM264 1143h139v139h-139v-139z" />
<glyph unicode="&#xf0;" horiz-adv-x="1144" d="M78 457q0 -205 143 -341t361 -136q217 0 356 147q135 148 135 381q0 369 -229 622q-37 41 -90 89l235 110l-33 68l-270 -127q-86 68 -242 125l-36 -70q119 -57 182 -100l-256 -119l31 -68l297 138q78 -61 108 -99q117 -125 176 -305q-84 88 -172 129q-90 37 -190 37 q-221 0 -365 -137q-141 -139 -141 -344zM172 455q0 166 114 283.5t289 117.5t285 -111q109 -112 109 -283t-107.5 -285t-280.5 -114t-292 113q-117 113 -117 279z" />
<glyph unicode="&#xf1;" horiz-adv-x="1003" d="M127 0h98v649q51 78 119 135q70 57 187.5 57.5t183.5 -83.5q63 -86 63 -234v-524h99v555q0 180 -95.5 281.5t-255.5 101.5q-92 0 -163 -40t-140 -146v168h-96v-920zM170 1122h66q6 57 32.5 78t64.5 21t154.5 -50.5t193.5 -50.5t117 58.5t40 136.5h-64q-17 -98 -86 -98 q-51 0 -168 50t-191.5 50t-117.5 -57q-41 -59 -41 -138z" />
<glyph unicode="&#xf2;" horiz-adv-x="1110" d="M86 459q0 -203 133 -340t335 -137t337 137q133 139 133 341t-133 340t-335 138t-337 -137q-133 -139 -133 -342zM190 459q0 160 106.5 271.5t258.5 111.5t258 -113q107 -108 107 -268t-107 -273q-109 -111 -259.5 -110.5t-256.5 111t-107 270.5zM373 1386l313 -319h66 l-213 319h-166z" />
<glyph unicode="&#xf3;" horiz-adv-x="1110" d="M86 459q0 -203 133 -340t335 -137t337 137q133 139 133 341t-133 340t-335 138t-337 -137q-133 -139 -133 -342zM190 459q0 160 106.5 271.5t258.5 111.5t258 -113q107 -108 107 -268t-107 -273q-109 -111 -259.5 -110.5t-256.5 111t-107 270.5zM528 1067h66l313 319 h-166z" />
<glyph unicode="&#xf4;" horiz-adv-x="1110" d="M86 459q0 -203 133 -340t335 -137t337 137q133 139 133 341t-133 340t-335 138t-337 -137q-133 -139 -133 -342zM190 459q0 160 106.5 271.5t258.5 111.5t258 -113q107 -108 107 -268t-107 -273q-109 -111 -259.5 -110.5t-256.5 111t-107 270.5zM274 1049h78l203 221 l205 -221h78l-224 335h-118z" />
<glyph unicode="&#xf5;" horiz-adv-x="1110" d="M86 459q0 -203 133 -340t335 -137t337 137q133 139 133 341t-133 340t-335 138t-337 -137q-133 -139 -133 -342zM190 459q0 160 106.5 271.5t258.5 111.5t258 -113q107 -108 107 -268t-107 -273q-109 -111 -259.5 -110.5t-256.5 111t-107 270.5zM221 1122h66 q6 57 32.5 78t64.5 21t155 -50.5t193.5 -50.5t116.5 58.5t40 136.5h-64q-17 -98 -86 -98q-51 0 -168 50t-191.5 50t-117.5 -57q-41 -59 -41 -138z" />
<glyph unicode="&#xf6;" horiz-adv-x="1110" d="M86 459q0 -203 133 -340t335 -137t337 137q133 139 133 341t-133 340t-335 138t-337 -137q-133 -139 -133 -342zM190 459q0 160 106.5 271.5t258.5 111.5t258 -113q107 -108 107 -268t-107 -273q-109 -111 -259.5 -110.5t-256.5 111t-107 270.5zM348 1143h139v139h-139 v-139zM629 1143h139v139h-139v-139z" />
<glyph unicode="&#xf7;" horiz-adv-x="1351" d="M139 674h1073v90h-1073v-90zM621 299h110v172h-110v-172zM621 967h110v172h-110v-172z" />
<glyph unicode="&#xf8;" horiz-adv-x="1110" d="M86 460q0 -202 125 -333l-121 -139l64 -49l116 135q113 -92 299.5 -92t321.5 137q133 139 133 340t-127 334l111 127l-64 51l-106 -123q-115 90 -299.5 90t-319.5 -137q-133 -139 -133 -341zM190.5 466q-0.5 153 106 264.5t245 111.5t228.5 -72l-489 -563 q-90 106 -90.5 259zM338 152l489 561q93 -104 93 -258t-107 -267q-109 -111 -248 -110.5t-227 74.5z" />
<glyph unicode="&#xf9;" horiz-adv-x="1003" d="M127 352q0 -180 95 -275t268.5 -95t287.5 178v-160h99v920h-99v-644q-35 -68 -113.5 -133.5t-192.5 -65t-181 78.5q-66 78 -66 217v547h-98v-568zM317 1386l314 -319h65l-213 319h-166z" />
<glyph unicode="&#xfa;" horiz-adv-x="1003" d="M127 352q0 -180 95 -275t268.5 -95t287.5 178v-160h99v920h-99v-644q-35 -68 -113.5 -133.5t-192.5 -65t-181 78.5q-66 78 -66 217v547h-98v-568zM473 1067h66l313 319h-166z" />
<glyph unicode="&#xfb;" horiz-adv-x="1003" d="M127 352q0 -180 95 -275t268.5 -95t287.5 178v-160h99v920h-99v-644q-35 -68 -113.5 -133.5t-192.5 -65t-181 78.5q-66 78 -66 217v547h-98v-568zM219 1049h78l203 221l205 -221h77l-223 335h-119z" />
<glyph unicode="&#xfc;" horiz-adv-x="1003" d="M127 352q0 -180 95 -275t268.5 -95t287.5 178v-160h99v920h-99v-644q-35 -68 -113.5 -133.5t-192.5 -65t-181 78.5q-66 78 -66 217v547h-98v-568zM293 1143h139v139h-139v-139zM573 1143h140v139h-140v-139z" />
<glyph unicode="&#xfd;" horiz-adv-x="854" d="M10 920l389 -744l-321 -647h100l686 1391h-100l-315 -644l-332 644h-107zM397 1067h66l313 319h-166z" />
<glyph unicode="&#xfe;" horiz-adv-x="1044" d="M129 -471h98v522q79 -36 138 -53q72 -16 149 -16q184 0 315.5 143t131.5 345t-132 335q-133 133 -335 133q-146 0 -267 -70v529h-98v-1868zM227 145v631q115 66 242 66q164 0 273.5 -109.5t109.5 -274.5t-101 -272.5t-270 -107.5q-126 0 -254 67z" />
<glyph unicode="&#xff;" horiz-adv-x="854" d="M10 920l389 -744l-321 -647h100l686 1391h-100l-315 -644l-332 644h-107zM217 1143h139v139h-139v-139zM498 1143h139v139h-139v-139z" />
<glyph unicode="&#x152;" horiz-adv-x="1835" d="M84 699.5q0 -301.5 207 -500.5t528 -199h940v90h-676v567l643 2v89h-643v559h662v90h-930q-311 0 -521 -198t-210 -499.5zM201 695q0 261 181 436.5t454 175.5h139v-1217h-133q-279 0 -460 172t-181 433z" />
<glyph unicode="&#x153;" horiz-adv-x="1705" d="M84 460q0 -202 126 -340t314 -138q139 0 241.5 59t164.5 158q51 -127 145 -172t202.5 -45t172.5 30q102 49 149 92v111q-30 -30 -114 -88q-78 -49 -172 -49q-139 0 -233.5 107t-94.5 268v22q0 10 2 19h631q0 193 -95 318.5t-249 125.5q-115 0 -197 -44t-155 -151 q-72 104 -162 149.5t-230 45.5q-195 0 -320.5 -138t-125.5 -340zM188 459q0 160 100.5 271.5t245 111.5t244.5 -113q101 -108 101 -268t-101 -273q-102 -111 -245 -110.5t-243.5 111t-101.5 270.5zM995 573q62 269 265 269q104 0 162.5 -72t74.5 -197h-502z" />
<glyph unicode="&#x178;" horiz-adv-x="1193" d="M0 1397l543 -647v-750h108v750l543 647h-131l-465 -553l-467 553h-131zM387 1589h139v140h-139v-140zM668 1589h139v140h-139v-140z" />
<glyph unicode="&#x2c6;" d="M59 1049h78l203 221l205 -221h78l-224 335h-118z" />
<glyph unicode="&#x2dc;" d="M6 1122h66q6 57 32.5 78t64.5 21t155 -50.5t193.5 -50.5t116.5 58.5t40 136.5h-64q-17 -98 -86 -98q-51 0 -168 50t-191.5 50t-117.5 -57q-41 -59 -41 -138z" />
<glyph unicode="&#x2000;" horiz-adv-x="917" />
<glyph unicode="&#x2001;" horiz-adv-x="1835" />
<glyph unicode="&#x2002;" horiz-adv-x="917" />
<glyph unicode="&#x2003;" horiz-adv-x="1835" />
<glyph unicode="&#x2004;" horiz-adv-x="611" />
<glyph unicode="&#x2005;" horiz-adv-x="458" />
<glyph unicode="&#x2006;" horiz-adv-x="305" />
<glyph unicode="&#x2007;" horiz-adv-x="305" />
<glyph unicode="&#x2008;" horiz-adv-x="229" />
<glyph unicode="&#x2009;" horiz-adv-x="367" />
<glyph unicode="&#x200a;" horiz-adv-x="101" />
<glyph unicode="&#x2010;" horiz-adv-x="641" d="M78 463h485v96h-485v-96z" />
<glyph unicode="&#x2011;" horiz-adv-x="641" d="M78 463h485v96h-485v-96z" />
<glyph unicode="&#x2012;" horiz-adv-x="641" d="M78 463h485v96h-485v-96z" />
<glyph unicode="&#x2013;" horiz-adv-x="1024" d="M-12 479h1048v66h-1048v-66z" />
<glyph unicode="&#x2014;" horiz-adv-x="2048" d="M-12 479h2072v66h-2072v-66z" />
<glyph unicode="&#x2018;" horiz-adv-x="362" d="M115 963h133v198h-43q0 68 8 94.5t26.5 43t28.5 30.5v72q-72 -44 -112.5 -109.5t-40.5 -187.5v-141z" />
<glyph unicode="&#x2019;" horiz-adv-x="362" d="M94 963q72 44 109 100q45 74 45 197v141h-133v-199h43q0 -68 -8.5 -94t-27 -42.5t-28.5 -31.5v-71z" />
<glyph unicode="&#x201a;" horiz-adv-x="362" d="M115 0h43q0 -110 -43 -168v-72q36 22 84.5 98t48.5 199v142h-133v-199z" />
<glyph unicode="&#x201c;" horiz-adv-x="811" d="M115 963h133v198h-43q0 68 8 94.5t26.5 43t28.5 30.5v72q-72 -44 -112.5 -109.5t-40.5 -187.5v-141zM563 963h133v198h-43q0 68 8.5 94.5t27 43t28.5 30.5v72q-71 -43 -109 -101q-45 -74 -45 -196v-141z" />
<glyph unicode="&#x201d;" horiz-adv-x="811" d="M94 963q72 44 109 100q45 74 45 197v141h-133v-199h43q0 -68 -8.5 -94t-27 -42.5t-28.5 -31.5v-71zM543 963q73 45 113 109.5t40 187.5v141h-133v-199h43q0 -68 -8 -94t-26.5 -42.5t-28.5 -31.5v-71z" />
<glyph unicode="&#x201e;" horiz-adv-x="811" d="M98 -168v-72q70 43 112 106.5t42 190.5v142h-133v-199h43q0 -66 -8 -93t-26.5 -44t-29.5 -31zM539 -168v-72q71 43 112 106.5t41 190.5v142h-133v-199h43q0 -66 -8 -93t-26.5 -44t-28.5 -31z" />
<glyph unicode="&#x2022;" horiz-adv-x="1024" d="M262 698q0 -104 73 -177t177 -72q104 0 177 72.5t73 176.5t-73 177.5t-177 72.5q-104 0 -177 -73t-73 -177z" />
<glyph unicode="&#x2026;" horiz-adv-x="2048" d="M274 0h132v201h-132v-201zM956 0h131v201h-131v-201zM1638 0h131v201h-131v-201z" />
<glyph unicode="&#x202f;" horiz-adv-x="367" />
<glyph unicode="&#x2039;" horiz-adv-x="575" d="M33 473l387 -461h125l-387 461l383 461h-125z" />
<glyph unicode="&#x203a;" horiz-adv-x="575" d="M29 12h125l387 461l-383 461h-125l383 -461z" />
<glyph unicode="&#x205f;" horiz-adv-x="458" />
<glyph unicode="&#x2122;" horiz-adv-x="1925" d="M207 1315h264v-666h107v666h262v82h-633v-82zM936 649h96v672l228 -672h65l236 672v-672h106v748h-188l-183 -584l-184 584h-176v-748z" />
<glyph unicode="&#xe000;" horiz-adv-x="921" d="M0 0v922h922v-922h-922z" />
<glyph unicode="&#xe001;" horiz-adv-x="2048" />
</font>
</defs>
</svg>
