<?xml version="1.0" standalone="no"?> <!DOCTYPE svg PUBLIC "-//W3C//DTD SVG 1.0//EN" "http://www.w3.org/TR/2001/REC-SVG-20010904/DTD/svg10.dtd" > <svg xmlns="http://www.w3.org/2000/svg" width="100%" height="100%">
<defs >
<font id="petitabold" horiz-adv-x="443" ><font-face
    font-family="PetitaBold"
    units-per-em="1000"
    panose-1="2 0 6 4 4 0 0 2 0 3"
    ascent="949"
    descent="-200"
    alphabetic="0" />
<missing-glyph horiz-adv-x="1100" />
<glyph unicode=" " glyph-name="space" horiz-adv-x="306" />
<glyph unicode="!" glyph-name="exclam" horiz-adv-x="195" d="M155 122V-25H40V122H155ZM39 707H156L137 167H58L39 707Z" />
<glyph unicode="&quot;" glyph-name="quotedbl" horiz-adv-x="306" d="M142 709V569L128 425H41L26 570V709H142ZM279 709V569L265 425H178L163 570V709H279Z" />
<glyph unicode="#" glyph-name="numbersign" horiz-adv-x="726" d="M418 281L446 422H309L281 281H418ZM641 281V185H495L452 -25H354L397 185H260L217 -25H119L162 185H85V281H183L211 422H85V518H232L274 723H372L330 518H467L509 723H607L565 518H641V422H544L516
281H641Z" />
<glyph unicode="$" glyph-name="dollar" horiz-adv-x="573" d="M474 301Q530 252 530 165Q530 80 457 22Q431 0 402 -13T338 -32V-142H240V-33Q192 -27 150 -9Q120 5 94 21T44 60V176Q73 154 95 139T134 113T166 95T195 82Q250 61 292 61Q351 61 391 92Q429 124
429 164Q429 208 393 232Q371 246 338 260T256 289Q207 303 169 320T104 359Q75 382 62 414T49 488Q49 572 120 629Q171 672 239 683L240 766H338L337 683Q377 678 408 665Q433 654 455 643T500 612V493Q477 511 461 523T431 543T407 558T385 569Q343 590 284 590Q254
590 230 582T186 560Q167 546 159 530T151 494Q151 455 180 436Q198 423 227 410T300 383Q360 364 404 344T474 301Z" />
<glyph unicode="%" glyph-name="percent" horiz-adv-x="768" d="M619 82Q647 109 647 145Q647 182 620 212Q593 239 555 239Q516 239 488 212Q460 184 460 148Q460 111 487 84Q515 56 554 56Q593 56 619 82ZM280 465Q308 492 308 529Q308 568 281 595Q253 623
217 623Q176 623 149 596T122 532Q122 493 149 466Q177 438 216 438Q254 438 280 465ZM684 278Q740 224 740 147Q740 72 685 17Q631 -37 553 -37Q478 -37 422 17Q367 72 367 147Q367 224 421 278Q476 332 553 332Q628 332 684 278ZM618 712H732L143 -36H28L618
712ZM346 662Q401 607 401 531Q401 455 346 400T215 345Q135 345 83 399Q29 454 29 531Q29 608 83 662Q138 716 215 716Q292 716 346 662Z" />
<glyph unicode="&amp;" glyph-name="ampersand" horiz-adv-x="677" d="M308 89Q342 107 374 144L229 295Q178 270 146 241Q112 208 112 163Q112 136 119 119T140 90Q168 65 217 65Q269 65 308 89ZM253 414Q297 434 321 458Q351 489 351 524Q351 556 330 574Q304
595 274 595Q242 595 214 574Q190 556 190 524Q190 498 207 470Q217 455 228 441T253 414ZM157 369Q133 397 114 429Q89 474 89 523Q89 594 145 645Q202 694 273 694Q343 694 395 651Q450 606 450 529Q450 453 397 398Q381 382 363 368T323 341L432 225Q437 233
440 239T447 252Q458 272 469 297T494 365H603Q584 310 571 277T542 215Q524 180 505 150L671 -25H535L443 72Q404 30 361 4Q293 -34 208 -34Q160 -34 122 -21T57 23Q5 81 5 154Q5 235 62 297Q102 342 157 369Z" />
<glyph unicode="&apos;" glyph-name="quotesingle" horiz-adv-x="244" d="M180 709V569L166 425H78L64 570V709H180Z" />
<glyph unicode="(" glyph-name="parenleft" horiz-adv-x="366" d="M171 -24Q185 -53 201 -79T239 -131T287 -185T352 -245H224Q182 -207 148 -160T81 -54Q15 69 15 231Q15 395 80 515Q112 575 147 622T224 707H352Q315 675 288 648T239 594T202 541T172 486Q116
372 116 231Q116 87 171 -24Z" />
<glyph unicode=")" glyph-name="parenright" horiz-adv-x="366" d="M287 516Q321 455 337 384T353 231Q353 150 337 79T287 -53Q255 -112 220 -159T142 -245H13Q51 -213 79 -186T128 -132T165 -79T196 -24Q252 90 252 231Q252 372 196 486Q182 515 166 541T128
593T79 647T13 707H142Q185 669 220 623T287 516Z" />
<glyph unicode="*" glyph-name="asterisk" horiz-adv-x="516" d="M338 488Q357 478 372 471T402 456T435 441T482 422L428 326Q410 340 398 350T377 366T360 378T344 388Q334 395 323 402T297 418Q298 396 299 379T301 344T305 307T311 260H205Q209 289 211 309T214
346T217 379T219 418Q191 401 172 388Q164 383 157 378T140 367T118 350T87 326L34 422Q62 433 80 441T114 456T143 470T177 488Q157 498 142 506T112 521T78 536T34 554L87 650Q105 636 117 626T139 610T156 598T172 588Q182 581 193 574T219 558Q218 580 217
597T215 631T211 669T205 716H311Q307 687 305 667T302 630T299 597T297 558Q312 567 323 574T344 588Q352 593 359 598T376 609T398 626T428 650L482 554Q454 543 436 535T402 520T372 506T338 488Z" />
<glyph unicode="+" glyph-name="plus" horiz-adv-x="726" d="M650 400V306H410V66H316V306H76V400H316V637H410V400H650Z" />
<glyph unicode="," glyph-name="comma" horiz-adv-x="195" d="M160 122V17Q160 -28 139 -70Q131 -87 118 -100T90 -125Q88 -127 86 -129T78 -135T62 -146T35 -166V-74Q40 -66 42 -63T47 -58T54 -51T60 -44Q63 -37 65 -25H45V122H160Z" />
<glyph unicode="-" glyph-name="hyphen" horiz-adv-x="344" d="M316 330V233H29V330H316Z" />
<glyph unicode="." glyph-name="period" horiz-adv-x="195" d="M154 123V-25H40V123H154Z" />
<glyph unicode="/" glyph-name="slash" horiz-adv-x="309" d="M223 716H322L86 -34H-13L223 716Z" />
<glyph unicode="0" glyph-name="zero" horiz-adv-x="550" d="M373 136Q394 175 405 225T417 337V345Q417 407 406 457T373 546Q353 585 328 601T274 618Q247 618 223 602T177 546Q156 507 145 457T133 345V337Q133 216 176 136Q198 97 222 81T276 64Q303 64 327
80T373 136ZM519 344V338Q519 180 456 75Q389 -34 274 -34Q217 -34 172 -7T94 75Q31 180 31 338V344Q31 502 94 607Q161 716 276 716Q333 716 378 689T456 607Q519 502 519 344Z" />
<glyph unicode="1" glyph-name="one" horiz-adv-x="369" d="M333 707V-25H231V500L105 373L35 445L231 640V707H333Z" />
<glyph unicode="2" glyph-name="two" horiz-adv-x="550" d="M513 72V-25H45V24Q82 62 110 92T163 150Q211 202 262 276Q281 304 295 331T323 387Q346 441 346 492Q346 545 309 582Q273 618 217 618Q175 618 145 600Q136 595 127 589T106 573T78 548T37 510V640Q56
657 74 668T113 691Q159 716 222 716Q316 716 382 652Q448 587 448 493Q448 423 413 348Q396 311 380 283T348 234Q329 207 311 182T273 131Q262 116 250 102T225 72H513Z" />
<glyph unicode="3" glyph-name="three" horiz-adv-x="550" d="M440 312Q481 260 481 192Q481 90 416 28T249 -34Q196 -34 151 -21Q129 -15 110 -9T69 10V111Q106 94 125 87T161 74Q179 69 199 67T245 64Q277 64 301 72T343 97Q380 132 380 184Q380 241 344 274Q327
291 301 300T238 310H203V408H235Q292 408 333 440Q372 469 372 514Q372 557 337 586Q300 618 242 618Q216 618 197 614T161 602Q152 598 144 594T127 584T105 571T75 551V659Q92 672 107 680T141 697Q185 716 250 716Q296 716 336 703T408 662Q473 605 473 517Q473
462 439 413Q418 384 383 362Q418 341 440 312Z" />
<glyph unicode="4" glyph-name="four" horiz-adv-x="550" d="M171 329H334V526L171 329ZM529 329V238H434V-25H333V238H21V289L378 716H435V329H529Z" />
<glyph unicode="5" glyph-name="five" horiz-adv-x="550" d="M423 384Q492 319 492 212Q492 105 425 35Q356 -34 251 -34Q221 -34 194 -30T141 -17Q117 -8 98 0T58 22V144Q77 130 91 121T116 105T138 93T160 83Q204 64 248 64Q312 64 351 105Q392 146 392 210Q392
277 349 314Q328 333 299 343T228 353Q203 353 186 349Q181 348 176 347T162 344T143 339T114 330V707H453V610H212V446L244 448Q300 451 344 434T423 384Z" />
<glyph unicode="6" glyph-name="six" horiz-adv-x="550" d="M366 95Q400 127 400 174Q400 227 366 261Q331 296 277 296Q227 296 191 275Q162 257 149 245Q148 240 148 235Q148 231 148 226Q148 184 158 155T187 106Q225 64 279 64Q330 64 366 95ZM439 334Q501
272 501 176Q501 87 437 26Q374 -34 281 -34Q183 -34 116 36Q82 72 66 121T49 233Q49 386 141 511Q186 572 239 623T363 725L425 650Q351 598 302 551T217 451Q192 415 175 369Q201 381 227 387T282 394Q379 394 439 334Z" />
<glyph unicode="7" glyph-name="seven" horiz-adv-x="550" d="M21 707H529L191 -42L102 -3L379 610H21V707Z" />
<glyph unicode="8" glyph-name="eight" horiz-adv-x="550" d="M360 98Q394 135 394 185Q394 235 360 269Q326 304 276 304Q224 304 190 270T156 184Q156 133 190 99Q225 64 277 64Q326 64 360 98ZM349 433Q380 464 380 507Q380 533 373 552T351 587Q321 617 275
617Q228 617 200 587Q186 572 178 552T170 504Q170 463 201 433Q232 402 276 402Q318 402 349 433ZM461 302Q495 249 495 187Q495 93 431 29Q368 -34 274 -34Q185 -34 120 29Q55 94 55 185Q55 249 88 300Q110 335 140 356Q108 383 92 416Q81 438 75 461T69 507Q69
595 130 656Q190 716 280 716Q362 716 421 654Q481 594 481 510Q481 462 464 425T411 356Q439 336 461 302Z" />
<glyph unicode="9" glyph-name="nine" horiz-adv-x="550" d="M398 439Q399 443 399 450Q399 498 390 529T363 579Q346 598 322 608T266 618Q217 618 183 584T149 500Q149 455 183 422Q217 388 267 388Q315 388 354 409Q385 426 398 439ZM435 646Q470 610 486 559T502
444Q502 325 432 206Q397 146 337 86T180 -44L122 34Q194 84 242 129T327 225Q356 265 375 316L368 312Q320 290 264 290Q174 290 111 350Q48 411 48 500Q48 594 110 655T265 716Q368 716 435 646Z" />
<glyph unicode=":" glyph-name="colon" horiz-adv-x="195" d="M154 123V-25H40V123H154ZM154 475V327H40V475H154Z" />
<glyph unicode=";" glyph-name="semicolon" horiz-adv-x="195" d="M160 122V17Q160 -28 139 -70Q131 -87 118 -100T90 -125Q88 -127 86 -129T78 -135T62 -146T35 -166V-74Q40 -66 42 -63T47 -58T54 -51T60 -44Q63 -37 65 -25H45V122H160ZM159 475V327H45V475H159Z" />
<glyph unicode="&lt;" glyph-name="less" horiz-adv-x="726" d="M650 176V72L76 313V389L650 630V526L226 351L650 176Z" />
<glyph unicode="=" glyph-name="equal" horiz-adv-x="726" d="M650 277V183H76V277H650ZM650 519V425H76V519H650Z" />
<glyph unicode="&gt;" glyph-name="greater" horiz-adv-x="726" d="M650 389V313L76 72V176L499 351L76 526V630L650 389Z" />
<glyph unicode="?" glyph-name="question" horiz-adv-x="309" d="M199 122V-25H84V122H199ZM254 665Q290 616 290 550Q290 489 266 441Q255 418 237 389T193 325Q182 309 176 297T167 276Q161 258 161 240Q161 235 161 231T162 222Q164 218 168 208T185 174L135
130Q115 153 106 166T89 193Q73 221 73 252Q73 285 82 315Q87 330 96 348T119 386Q136 413 149 436T171 480Q189 516 189 555Q189 585 173 606Q159 624 138 624Q134 624 125 620T103 610T79 597T55 584L19 675Q21 676 34 682T65 697T89 708Q111 717 139 717Q215
717 254 665Z" />
<glyph unicode="@" glyph-name="at" horiz-adv-x="880" d="M465 192Q505 266 505 312Q505 353 482 381Q462 407 426 407Q375 407 339 352Q302 294 302 228Q302 199 309 180T327 149Q341 135 353 130T376 124Q402 124 424 140T465 192ZM693 106H773Q758 80 743
60T712 25T679 -3T641 -28Q553 -80 446 -80Q294 -80 198 25Q103 131 103 269Q103 406 200 509Q299 613 439 613Q574 613 661 526Q747 440 747 322Q747 210 681 131Q649 92 613 70T535 48Q522 48 513 54T495 70Q491 74 488 80T480 97Q451 74 425 62T367 50Q307 50
261 98Q216 146 216 231Q216 319 273 397Q331 478 430 478Q447 478 465 473T502 457Q509 453 515 449T533 434L539 463H625L558 150Q556 145 555 139T554 122Q574 127 593 140T632 180Q679 239 679 324Q679 363 666 396T630 457Q558 544 441 544Q333 544 253 464T173
265Q173 144 255 67Q337 -11 440 -11Q527 -11 594 23Q628 40 651 59T693 106Z" />
<glyph unicode="A" glyph-name="A" horiz-adv-x="734" d="M260 305H475L367 541L260 305ZM398 712L735 -25H626L518 211H217L109 -25H-1L337 712H398Z" />
<glyph unicode="B" glyph-name="B" horiz-adv-x="584" d="M387 99Q425 128 425 180Q425 212 415 232T385 266Q363 281 331 289T250 297H156V69H267Q308 69 337 77T387 99ZM328 419Q346 433 355 452T365 499Q365 530 356 550T329 584Q310 598 281 605T208 613H156V391H211Q291
391 328 419ZM478 318Q531 268 531 185Q531 86 461 29Q392 -25 277 -25H53V707H226Q280 707 325 695T404 656Q472 600 472 504Q472 417 407 363Q448 348 478 318Z" />
<glyph unicode="C" glyph-name="C" horiz-adv-x="745" d="M700 154V42Q666 22 635 9T571 -14Q536 -25 504 -29T441 -34Q269 -34 157 71Q44 176 44 341Q44 501 157 609Q214 663 284 689T438 716Q497 716 560 700Q594 692 625 680T692 649V532Q641 561 609 575T548
599Q489 617 429 617Q310 617 231 538Q151 460 151 341Q151 218 229 142Q308 65 432 65Q500 65 559 86Q574 91 588 97T619 111T655 129T700 154Z" />
<glyph unicode="D" glyph-name="D" horiz-adv-x="814" d="M551 143Q630 217 630 340Q630 463 552 538T340 613H180V69H338Q472 69 551 143ZM630 609Q684 559 710 492T737 340Q737 180 635 77Q583 25 512 0T352 -25H77V707H345Q434 707 505 683T630 609Z" />
<glyph unicode="E" glyph-name="E" horiz-adv-x="539" d="M485 69V-25H54V707H478V613H157V390H469V296H157V69H485Z" />
<glyph unicode="F" glyph-name="F" horiz-adv-x="482" d="M442 707V613H142V404H411V310H142V-25H39V707H442Z" />
<glyph unicode="G" glyph-name="G" horiz-adv-x="791" d="M726 335V34Q691 16 661 4T599 -16Q533 -34 460 -34Q291 -34 178 73Q64 181 64 343Q64 502 175 609Q285 716 450 716Q533 716 602 694Q636 683 662 673T714 647V529Q661 560 629 575T567 599Q508 617 450
617Q330 617 251 539Q171 461 171 342Q171 216 251 141Q333 65 467 65Q520 65 567 77Q585 82 599 87T624 97V241H480V335H726Z" />
<glyph unicode="H" glyph-name="H" horiz-adv-x="791" d="M700 707V-25H597V298H193V-25H90V707H193V392H597V707H700Z" />
<glyph unicode="I" glyph-name="I" horiz-adv-x="229" d="M165 707V-25H63V707H165Z" />
<glyph unicode="J" glyph-name="J" horiz-adv-x="229" d="M161 707V-7Q161 -58 151 -99T115 -168Q92 -195 62 -210T-7 -224L-62 -221L-73 -118L-11 -126Q7 -126 18 -120T38 -99Q47 -82 52 -57T58 4V707H161Z" />
<glyph unicode="K" glyph-name="K" horiz-adv-x="601" d="M221 343L604 -25H465L143 283V-25H40V707H143V404L434 707H569L221 343Z" />
<glyph unicode="L" glyph-name="L" horiz-adv-x="516" d="M478 69V-25H38V707H141V69H478Z" />
<glyph unicode="M" glyph-name="M" horiz-adv-x="859" d="M767 707V-25H664V536L430 246L195 536V-25H92V707H182L430 404L677 707H767Z" />
<glyph unicode="N" glyph-name="N" horiz-adv-x="848" d="M757 707V-25H676L194 529V-25H91V707H173Q243 622 308 547T439 400Q493 339 546 278T654 153V707H757Z" />
<glyph unicode="O" glyph-name="O" horiz-adv-x="905" d="M650 146Q732 228 732 341Q732 454 650 536Q569 617 453 617Q336 617 255 536T174 341Q174 226 254 146Q335 65 453 65Q569 65 650 146ZM727 609Q839 500 839 341Q839 183 727 74Q616 -34 453 -34Q288
-34 178 73Q67 181 67 341Q67 501 177 608Q288 716 453 716Q615 716 727 609Z" />
<glyph unicode="P" glyph-name="P" horiz-adv-x="561" d="M369 418Q386 432 395 452T405 501Q405 528 396 548T370 582Q351 597 326 605T265 613H153V388H260Q333 388 369 418ZM444 655Q478 628 494 589T511 500Q511 452 494 413T442 346Q375 294 263 294H153V-25H50V707H269Q323
707 367 694T444 655Z" />
<glyph unicode="Q" glyph-name="Q" horiz-adv-x="905" d="M650 146Q732 228 732 341Q732 454 650 536Q569 617 453 617Q336 617 255 536T174 341Q174 226 254 146Q335 65 453 65Q569 65 650 146ZM727 609Q839 501 839 341Q839 182 727 73Q692 38 650 15T559 -21Q569
-26 579 -30T600 -40Q615 -46 636 -50T679 -58T718 -63T744 -66L752 -168Q708 -168 668 -160T580 -134T489 -92T404 -31Q337 -23 280 2T177 73Q121 127 94 194T67 341Q67 501 177 608Q288 716 453 716Q617 716 727 609Z" />
<glyph unicode="R" glyph-name="R" horiz-adv-x="630" d="M361 425Q379 439 388 458T398 505Q398 555 362 583Q321 613 250 613H157V396H245Q285 396 313 403T361 425ZM488 210L641 -25H519L392 173Q373 202 357 226T323 269Q295 302 236 302H157V-25H54V707H251Q308
707 354 695T435 657Q470 630 487 591T505 504Q505 428 459 381Q430 352 398 333Q406 325 413 316T429 296Q445 273 459 252T488 210Z" />
<glyph unicode="S" glyph-name="S" horiz-adv-x="516" d="M429 311Q473 261 473 173Q473 88 409 27T255 -34Q192 -34 137 -10Q113 1 92 12T51 39V163Q78 143 97 129T132 106T158 91T178 81Q213 65 246 65Q298 65 333 97Q367 130 367 176Q367 202 360 220T337 251Q319
265 291 279T220 308Q133 338 89 382Q65 407 54 440T42 513Q42 597 108 656Q172 716 261 716Q325 716 373 697Q397 689 413 681T445 661L447 545Q427 557 413 565T387 580T367 590T347 600Q314 617 267 617Q216 617 183 587Q149 554 149 515Q149 491 156 476T174
450Q203 424 278 396Q331 377 369 357T429 311Z" />
<glyph unicode="T" glyph-name="T" horiz-adv-x="630" d="M623 707V613H367V-25H264V613H8V707H623Z" />
<glyph unicode="U" glyph-name="U" horiz-adv-x="768" d="M694 707V296Q694 225 673 166T609 60Q522 -34 384 -34Q247 -34 160 57T73 291V707H176V295Q176 239 190 198T233 126Q289 65 385 65Q480 65 535 128Q562 159 576 201T591 300V707H694Z" />
<glyph unicode="V" glyph-name="V" horiz-adv-x="653" d="M550 707H659L350 -32H302L-6 707H101L327 170L550 707Z" />
<glyph unicode="W" glyph-name="W" horiz-adv-x="1134" d="M1013 707H1120L827 -32H780L568 501L356 -32H308L14 707H122L331 184L543 707H593L804 183L1013 707Z" />
<glyph unicode="X" glyph-name="X" horiz-adv-x="797" d="M465 349L799 -25H663L398 274L133 -25H-2L329 349L14 707H149L398 426L645 707H780L465 349Z" />
<glyph unicode="Y" glyph-name="Y" horiz-adv-x="695" d="M567 707H696L402 357V-25H299V357L6 707H135L351 451L567 707Z" />
<glyph unicode="Z" glyph-name="Z" horiz-adv-x="699" d="M677 69V-25H37L22 20L508 613H48V707H663L676 657L190 69H677Z" />
<glyph unicode="[" glyph-name="bracketleft" horiz-adv-x="332" d="M304 -148V-245H28V707H304V610H126V-148H304Z" />
<glyph unicode="\" glyph-name="backslash" horiz-adv-x="309" d="M86 716L321 -34H223L-12 716H86Z" />
<glyph unicode="]" glyph-name="bracketright" horiz-adv-x="332" d="M304 707V-245H28V-148H206V610H28V707H304Z" />
<glyph unicode="^" glyph-name="asciicircum" horiz-adv-x="726" d="M377 713L617 428L549 366L363 588L177 366L109 428L348 713H377Z" />
<glyph unicode="_" glyph-name="underscore" horiz-adv-x="550" d="M557 -229V-329H-7V-229H557Z" />
<glyph unicode="`" glyph-name="grave" horiz-adv-x="366" d="M191 702L329 496H240L38 702H191Z" />
<glyph unicode="a" glyph-name="a" horiz-adv-x="561" d="M372 70Q383 75 393 84T413 99V347Q407 351 399 359T380 373Q353 386 313 386Q243 386 198 338Q152 289 152 213Q152 141 193 102Q233 60 302 60Q346 60 372 70ZM412 -2Q403 -5 394 -13T377 -23Q335 -34
293 -34Q188 -34 119 35Q51 106 51 212Q51 270 68 319T121 406Q191 483 303 483Q332 483 359 472T413 449V474H510V-27H412V-2Z" />
<glyph unicode="b" glyph-name="b" horiz-adv-x="561" d="M360 112Q410 161 410 234Q410 305 373 350Q337 393 282 393Q235 393 201 368Q165 342 149 324V77Q154 75 159 74T171 70Q185 67 201 65T237 63Q312 63 360 112ZM448 415Q480 380 495 335T510 236Q510
117 435 41Q358 -34 230 -34Q184 -34 144 -24Q122 -19 102 -12T52 9L51 707H149V440Q170 454 190 463Q236 483 283 483Q386 483 448 415Z" />
<glyph unicode="c" glyph-name="c" horiz-adv-x="459" d="M427 103V-4Q407 -11 393 -15T361 -24Q325 -34 282 -34Q225 -34 179 -17T99 37Q64 72 48 119T32 224Q32 331 97 405Q131 445 176 464T277 483Q314 483 345 476Q359 473 375 468T419 454V344Q383 360 367
366T337 377Q313 386 278 386Q212 386 174 342Q133 298 133 224Q133 185 143 156T173 106Q213 63 284 63Q317 63 346 71Q353 73 360 75T376 81T397 90T427 103Z" />
<glyph unicode="d" glyph-name="d" horiz-adv-x="561" d="M383 76Q392 81 399 90T411 102V355Q397 362 375 373Q346 386 308 386Q238 386 196 342Q152 296 152 224Q152 156 198 110Q245 63 315 63Q359 63 383 76ZM412 1Q404 -4 397 -12T381 -23Q363 -29 344 -31T304
-34Q197 -34 124 41Q87 78 69 124T51 224Q51 337 123 411Q196 483 311 483Q338 483 362 478T412 462V707H510V-25H412V1Z" />
<glyph unicode="e" glyph-name="e" horiz-adv-x="527" d="M151 295H376Q371 312 364 330T346 358Q318 386 268 386Q208 386 173 342Q167 334 162 320T151 295ZM136 216Q138 151 181 109Q227 63 295 63Q345 63 381 84Q392 90 402 96T423 110T448 131T482 162V39Q438
5 393 -14T291 -34Q179 -34 107 41T35 231Q35 282 51 327T100 409Q166 483 267 483Q366 483 429 414Q461 379 476 333T491 216H136Z" />
<glyph unicode="f" glyph-name="f" horiz-adv-x="264" d="M318 685V592Q291 601 280 604T256 612Q236 619 208 619Q186 619 172 613T149 595Q139 584 133 563T127 508V474H215V385H127V-25H29V385H-54V474H30V523Q30 608 80 661Q131 716 212 716Q244 716 271 707Q286
702 296 698T318 685Z" />
<glyph unicode="g" glyph-name="g" horiz-adv-x="561" d="M372 70Q383 75 393 79T413 89V347Q407 351 399 359T380 373Q351 386 313 386Q243 386 198 338Q152 289 152 213Q152 141 193 102Q232 60 302 60Q346 60 372 70ZM510 474V-92Q510 -125 489 -154T438 -206T373
-241T312 -254Q280 -254 243 -244T179 -211Q153 -190 133 -159T94 -68L194 -66Q209 -96 224 -110T250 -132Q261 -140 279 -144T312 -148Q325 -148 342 -142T375 -128T401 -110T412 -92V-12Q403 -15 394 -18T376 -23Q335 -34 293 -34Q188 -34 119 35Q84 71 68 115T51
212Q51 270 68 319T120 406Q191 483 303 483Q332 483 359 472T413 449V474H510Z" />
<glyph unicode="h" glyph-name="h" horiz-adv-x="539" d="M478 271V-25H379V256Q379 291 372 315T354 355Q331 386 281 386Q257 386 240 381T208 364Q181 341 159 310V-25H61V707H160V437Q167 444 174 449T190 460Q231 483 282 483Q370 483 425 425Q452 396 465
357T478 271Z" />
<glyph unicode="i" glyph-name="i" horiz-adv-x="207" d="M152 474V-25H54V474H152ZM152 707V575H54V707H152Z" />
<glyph unicode="j" glyph-name="j" horiz-adv-x="207" d="M157 474V-32Q157 -91 146 -135T107 -206Q84 -229 55 -242T-17 -255L-46 -164H-8Q24 -164 40 -143Q48 -132 53 -109T59 -47V474H157ZM157 707V575H59V707H157Z" />
<glyph unicode="k" glyph-name="k" horiz-adv-x="544" d="M176 236V-25H78V707H176V236ZM261 236L576 -25H433L119 236L397 474H536L261 236Z" />
<glyph unicode="l" glyph-name="l" horiz-adv-x="207" d="M152 707V-25H54V707H152Z" />
<glyph unicode="m" glyph-name="m" horiz-adv-x="848" d="M774 271V-25H676V256Q676 291 669 315T650 355Q638 370 622 378T581 386Q547 386 522 360Q507 345 496 330T474 299V-25H376V256Q376 291 369 315T351 355Q329 386 285 386Q244 386 219 364Q206 353 195
339T173 309V-25H75V474H172V438Q185 451 200 460Q241 483 291 483H303Q347 483 388 457Q417 438 440 400Q448 411 458 421T479 441Q524 483 592 483H604Q681 483 728 421Q774 362 774 271Z" />
<glyph unicode="n" glyph-name="n" horiz-adv-x="539" d="M478 271V-25H379V256Q379 291 372 315T354 355Q331 386 281 386Q257 386 240 381T208 364Q181 341 159 310V-25H61V474H159V437Q166 444 173 449T189 460Q230 483 282 483Q370 483 425 425Q452 396 465
357T478 271Z" />
<glyph unicode="o" glyph-name="o" horiz-adv-x="596" d="M406 109Q451 155 451 224Q451 291 406 339Q360 386 298 386Q235 386 190 340Q145 292 145 224Q145 158 190 110Q236 63 298 63Q361 63 406 109ZM479 408Q552 332 552 224Q552 114 480 41Q443 3 398 -15T298
-34Q189 -34 117 41Q44 117 44 224Q44 334 116 408Q153 446 198 464T298 483Q407 483 479 408Z" />
<glyph unicode="p" glyph-name="p" horiz-adv-x="561" d="M402 107Q446 153 446 224Q446 293 400 339Q353 386 284 386Q264 386 248 379T220 366Q211 362 204 359T191 354V87Q198 83 206 80T224 74Q252 63 290 63Q361 63 402 107ZM192 453Q208 459 237 471T296
483Q405 483 477 411Q549 338 549 225Q549 173 531 128T478 44Q407 -34 306 -34Q263 -34 227 -25Q217 -23 208 -20T191 -14V-255H93V474H192V453Z" />
<glyph unicode="q" glyph-name="q" horiz-adv-x="561" d="M372 70Q383 75 393 79T413 89V347Q407 351 399 359T380 373Q353 386 313 386Q243 386 198 338Q152 289 152 213Q152 141 193 102Q233 60 302 60Q346 60 372 70ZM510 474V-255H412V-12Q403 -15 394 -18T377
-23Q335 -34 293 -34Q188 -34 119 35Q51 106 51 212Q51 270 68 319T121 406Q191 483 303 483Q332 483 359 472T413 449V474H510Z" />
<glyph unicode="r" glyph-name="r" horiz-adv-x="409" d="M359 455Q375 444 387 434T413 406L359 321Q330 348 317 359T294 376Q277 386 266 386Q252 386 236 378T200 347Q163 307 146 276V-25H48V474H146V400Q147 402 152 411T167 434T182 452Q208 474 233 478T280
483Q322 483 359 455Z" />
<glyph unicode="s" glyph-name="s" horiz-adv-x="389" d="M314 220Q338 200 349 174T361 116Q361 54 310 8Q261 -35 191 -35Q136 -35 96 -18Q76 -10 61 -2T29 18V126Q49 113 63 105T88 91T108 82T126 75Q162 63 191 63Q210 63 223 67T247 79Q265 92 265 117Q265
133 251 146Q243 154 223 164T164 188Q104 211 69 243Q32 279 32 337Q32 400 84 443Q135 483 198 483Q245 483 283 468Q301 461 316 453T347 430V318Q326 333 312 343T289 359T272 370T257 377Q228 389 202 389Q181 389 168 385T146 373Q128 358 128 338Q128 318
144 306Q157 298 173 290T212 274Q273 253 314 220Z" />
<glyph unicode="t" glyph-name="t" horiz-adv-x="332" d="M350 99V-3Q326 -14 312 -19T287 -27Q263 -34 233 -34Q175 -34 139 -1Q119 16 111 40T103 91V385H-18V474H103V589L154 623H201V474H327V385H201V124Q201 97 203 85T208 71T217 66T246 63Q259 63 277 68Q286
71 299 76T350 99Z" />
<glyph unicode="u" glyph-name="u" horiz-adv-x="539" d="M478 474V-25H379V9Q367 -2 350 -11Q309 -34 264 -34Q218 -34 181 -22T116 19T75 85T61 172V474H160V182Q160 150 166 128T185 92Q198 78 215 71T259 63Q301 63 333 89Q350 103 361 116T380 141V474H478Z" />
<glyph unicode="v" glyph-name="v" horiz-adv-x="470" d="M385 474H486L272 -34H210L-17 474H87L239 133L385 474Z" />
<glyph unicode="w" glyph-name="w" horiz-adv-x="779" d="M679 474H781L566 -34H510L389 286L267 -34H211L-2 474H100L235 150L360 474H416L541 150L679 474Z" />
<glyph unicode="x" glyph-name="x" horiz-adv-x="599" d="M469 474H599L369 230L596 -25H468L303 159L139 -25H10L236 230L8 474H138L303 299L469 474Z" />
<glyph unicode="y" glyph-name="y" horiz-adv-x="497" d="M394 474H499L139 -255H34L203 86L0 474H109L255 191L394 474Z" />
<glyph unicode="z" glyph-name="z" horiz-adv-x="436" d="M431 69V-25H18L3 20L277 380H22V474H421L433 429L161 69H431Z" />
<glyph unicode="{" glyph-name="braceleft" horiz-adv-x="366" d="M327 -141V-245H289Q248 -245 217 -232T166 -190Q133 -139 133 -70V75Q133 101 128 119T114 148T91 166T40 180V282Q76 288 91 295T114 314T127 343T133 387V532Q133 566 140 596T165 652Q184
681 216 694T289 707H327V603H286Q263 603 251 591Q246 587 243 575T239 538V412Q239 370 232 336T208 277Q190 249 168 231Q189 214 208 186Q225 160 232 126T239 50V-76Q239 -102 242 -113T250 -128Q263 -141 286 -141H327Z" />
<glyph unicode="|" glyph-name="bar" horiz-adv-x="244" d="M171 711V-339H73V711H171Z" />
<glyph unicode="}" glyph-name="braceright" horiz-adv-x="366" d="M327 282V180Q291 174 276 167T252 148Q244 136 239 119T233 75V-70Q233 -104 226 -134T201 -189Q182 -219 150 -232T77 -245H39V-141H80Q93 -141 101 -138T115 -129Q119 -125 123 -113T127 -76V50Q127
92 134 126T158 186T199 231Q178 247 159 275Q142 301 135 335T127 412V538Q127 564 124 575T116 590Q103 603 80 603H39V707H77Q118 707 149 694T200 652Q233 601 233 532V387Q233 361 238 343T251 314T275 296T327 282Z" />
<glyph unicode="~" glyph-name="asciitilde" horiz-adv-x="726" d="M545 369Q554 375 563 381T585 395T613 413T652 439L650 325Q638 315 625 306T591 284Q543 253 489 253Q460 253 425 263T348 294T279 323T237 332Q209 332 176 312Q167 307 158 301T137 287T111
267T74 237V357Q86 367 100 376T133 398Q181 429 236 429Q264 429 299 419T377 388T446 359T488 350Q513 350 545 369Z" />
</font>
</defs>
</svg>
